#N canvas -1928 79 1920 997 12;
#X obj 142 520 dac~;
#X obj 158 433 bng 15 250 50 0 empty empty empty 17 7 0 10 -262144
-1 -1;
#X floatatom 279 396 5 0 0 0 midi_note - -;
#X text 191 280 creation arguments are OSC address;
#X text 179 238 set message to change OSC address;
#X text 164 48 1 Set IP Address : network address;
#X text 164 68 2 Set Ports (sending and listening);
#X text 164 87 3 Set OSC Addresses (routing osc data;
#X text 155 26 Key Settings;
#X floatatom 43 194 5 0 0 0 - - -;
#N canvas 358 411 913 462 oscReceive 0;
#X obj 55 184 netreceive -u -b;
#X msg 78 143 listen 0;
#X text 152 143 stop listening;
#X text 64 58 packets from network;
#X text 173 177 UDP packets \, binary output, f 13;
#X obj 45 314 print;
#X obj 45 272 oscparse;
#X text 150 114 listen on port 8000;
#X obj 177 269 oscparse;
#X obj 177 293 list trim;
#X floatatom 44 389 5 0 0 0 - - -;
#X text 241 267 Parse the OSC message;
#X obj 177 319 route unity;
#X obj 66 84 loadbang;
#X obj 413 148 netreceive -u -b;
#X msg 66 115 listen 6162;
#X obj 43 366 route test;
#X obj 44 416 s test;
#X floatatom 137 389 5 0 0 0 - - -;
#X obj 136 366 route tempo;
#X obj 137 416 s tempo;
#X obj 235 391 bng 15 250 50 0 empty empty empty 17 7 0 10 -262144
-1 -1;
#X obj 360 391 bng 15 250 50 0 empty empty empty 17 7 0 10 -262144
-1 -1;
#X obj 234 364 route start_stop;
#X obj 235 414 s start_stop;
#X obj 359 364 route violin_spawn;
#X obj 360 414 s violin_spawn;
#X obj 494 391 bng 15 250 50 0 empty empty empty 17 7 0 10 -262144
-1 -1;
#X obj 493 364 route violin_die;
#X obj 494 414 s violin_die;
#X connect 0 0 6 0;
#X connect 0 0 8 0;
#X connect 1 0 0 0;
#X connect 6 0 5 0;
#X connect 8 0 9 0;
#X connect 9 0 12 0;
#X connect 10 0 17 0;
#X connect 12 0 16 0;
#X connect 12 0 19 0;
#X connect 12 0 23 0;
#X connect 12 0 25 0;
#X connect 12 0 28 0;
#X connect 13 0 15 0;
#X connect 15 0 0 0;
#X connect 16 0 10 0;
#X connect 18 0 20 0;
#X connect 19 0 18 0;
#X connect 21 0 24 0;
#X connect 22 0 26 0;
#X connect 23 0 21 0;
#X connect 25 0 22 0;
#X connect 27 0 29 0;
#X connect 28 0 27 0;
#X restore 47 142 pd oscReceive;
#X obj 47 36 tgl 15 0 empty empty empty 17 7 0 10 -262144 -1 -1 0 1
;
#X msg 47 61 \; pd dsp \$1;
#X obj 44 278 oscformat PD message;
#X msg 76 239 set PD message;
#N canvas 727 97 450 300 oscSend 0;
#X msg 158 207 disconnect;
#X obj 61 253 netsend -u -b;
#X obj 59 55 list prepend send;
#X obj 59 80 list trim;
#X obj 59 29 r oscOut;
#X obj 147 108 loadbang;
#X msg 147 148 connect localhost 6969;
#X msg 150 175 connect 127.0.0.1 6969;
#X text 314 174 send to port 6969;
#X connect 0 0 1 0;
#X connect 2 0 3 0;
#X connect 3 0 1 0;
#X connect 4 0 2 0;
#X connect 5 0 6 0;
#X connect 6 0 1 0;
#X connect 7 0 1 0;
#X restore 47 118 pd oscSend;
#X obj 44 313 s oscOut;
#X obj 239 118 r test;
#X msg 226 180 activated;
#X obj 225 209 print;
#X obj 227 147 bng 15 250 50 0 empty empty empty 17 7 0 10 -262144
-1 -1;
#X floatatom 1224 455 5 0 0 1 Milliseconds - -;
#X obj 1192 497 metro;
#X obj 1176 515 bng 15 250 50 0 empty empty empty 17 7 0 10 -262144
-1 -1;
#X obj 1192 574 +;
#X obj 1223 544 + 1;
#X floatatom 1192 629 5 0 0 0 - - -;
#X obj 1192 730 spigot;
#X obj 1213 750 spigot;
#X floatatom 937 112 5 0 0 0 base_tempo - -;
#X text 454 300 comment;
#N canvas -1397 173 786 657 cello_notes 0;
#X obj 272 106 inlet;
#X obj 372 106 inlet;
#X obj 347 577 outlet;
#X obj 309 182 metro;
#X obj 293 200 bng 15 250 50 0 empty empty empty 17 7 0 10 -262144
-1 -1;
#X obj 309 259 +;
#X obj 340 229 + 1;
#X floatatom 309 314 5 0 0 0 - - -;
#X obj 309 288 % 8;
#X obj 309 341 sel 0 1 2 3 4 5 6 7;
#X msg 309 374 48;
#X msg 325 394 43;
#X msg 341 414 45;
#X msg 357 434 40;
#X msg 374 375 41;
#X msg 390 395 36;
#X msg 406 414 41;
#X msg 425 476 38;
#X msg 448 498 43;
#X text 489 435 switch between these 2;
#X obj 425 434 random 2;
#X obj 425 453 sel 0 1;
#X text 193 105 start/stop;
#X text 420 108 tempo;
#X connect 0 0 3 0;
#X connect 1 0 3 1;
#X connect 3 0 4 0;
#X connect 3 0 5 0;
#X connect 5 0 6 0;
#X connect 5 0 8 0;
#X connect 6 0 5 1;
#X connect 7 0 9 0;
#X connect 8 0 7 0;
#X connect 9 0 10 0;
#X connect 9 1 11 0;
#X connect 9 2 12 0;
#X connect 9 3 13 0;
#X connect 9 4 14 0;
#X connect 9 5 15 0;
#X connect 9 6 16 0;
#X connect 9 7 20 0;
#X connect 10 0 2 0;
#X connect 11 0 2 0;
#X connect 12 0 2 0;
#X connect 13 0 2 0;
#X connect 14 0 2 0;
#X connect 15 0 2 0;
#X connect 16 0 2 0;
#X connect 17 0 2 0;
#X connect 18 0 2 0;
#X connect 20 0 21 0;
#X connect 21 0 17 0;
#X connect 21 1 18 0;
#X restore 589 294 pd cello_notes;
#X floatatom 589 337 5 0 0 0 bass_line - -;
#X obj 589 135 tgl 15 0 empty empty Start/stop 17 7 0 10 -262144 -1
-1 0 1;
#X obj 1064 82 * 2;
#X obj 1188 82 * 4;
#X floatatom 1064 111 5 0 0 0 half_tempo - -;
#X floatatom 1188 112 5 0 0 0 whole_tempo - -;
#N canvas 609 183 628 610 sax_whole_notes 0;
#X obj 173 59 inlet;
#X obj 220 58 inlet;
#X obj 173 100 metro;
#X obj 173 177 +;
#X obj 204 147 + 1;
#X floatatom 173 232 5 0 0 0 - - -;
#X obj 173 206 % 8;
#X obj 211 505 outlet;
#X obj 173 269 sel 0 1 2 3 4 5 6 7;
#X text 353 363 switch between these 2;
#X obj 289 362 random 2;
#X obj 289 381 sel 0 1;
#X msg 173 302 60;
#X msg 189 322 55;
#X msg 205 342 57;
#X msg 221 363 52;
#X msg 238 303 53;
#X msg 254 323 48;
#X msg 270 342 53;
#X msg 289 404 50;
#X msg 312 426 12;
#X connect 0 0 2 0;
#X connect 1 0 2 1;
#X connect 2 0 3 0;
#X connect 3 0 4 0;
#X connect 3 0 6 0;
#X connect 4 0 3 1;
#X connect 5 0 8 0;
#X connect 6 0 5 0;
#X connect 8 0 12 0;
#X connect 8 1 13 0;
#X connect 8 2 14 0;
#X connect 8 3 15 0;
#X connect 8 4 16 0;
#X connect 8 5 17 0;
#X connect 8 6 18 0;
#X connect 8 7 10 0;
#X connect 10 0 11 0;
#X connect 11 0 19 0;
#X connect 11 1 20 0;
#X connect 12 0 7 0;
#X connect 13 0 7 0;
#X connect 14 0 7 0;
#X connect 15 0 7 0;
#X connect 16 0 7 0;
#X connect 17 0 7 0;
#X connect 18 0 7 0;
#X connect 19 0 7 0;
#X connect 20 0 7 0;
#X restore 508 481 pd sax_whole_notes;
#N canvas -967 87 958 988 sax_half_notes 0;
#X obj 103 41 inlet;
#X obj 172 40 inlet;
#X obj 216 443 outlet;
#X obj 103 81 metro;
#X obj 103 158 +;
#X obj 134 128 + 1;
#X floatatom 103 213 5 0 0 0 - - -;
#X obj 103 187 % 16;
#X obj 103 242 sel 0 1 2 3 4 5 6 7 8 9 10 11 12 13 14 15;
#X obj 472 180 * 2;
#X obj 472 215 metro;
#X text 541 245 whole note to potentially switch between measures;
#X obj 473 243 random 3;
#X msg 67 284 60;
#X msg 159 282 57;
#X msg 192 323 52;
#X msg 245 283 53;
#X msg 280 321 48;
#X msg 316 281 53;
#X msg 351 319 50;
#X msg 80 305 67;
#X msg 112 347 62;
#X msg 99 328 55;
#X msg 180 304 64;
#X msg 204 341 59;
#X msg 258 303 60;
#X msg 298 340 55;
#X msg 334 301 48;
#X msg 370 341 57;
#X floatatom 54 392 5 0 0 0 - - -;
#X floatatom 155 387 5 0 0 0 - - -;
#X floatatom 248 385 5 0 0 0 - - -;
#X floatatom 331 386 5 0 0 0 - - -;
#X floatatom 105 392 5 0 0 0 - - -;
#X floatatom 200 389 5 0 0 0 - - -;
#X floatatom 287 388 5 0 0 0 - - -;
#X floatatom 370 387 5 0 0 0 - - -;
#X connect 0 0 3 0;
#X connect 1 0 3 1;
#X connect 1 0 9 0;
#X connect 3 0 4 0;
#X connect 4 0 5 0;
#X connect 4 0 7 0;
#X connect 5 0 4 1;
#X connect 6 0 8 0;
#X connect 7 0 6 0;
#X connect 8 0 13 0;
#X connect 8 1 20 0;
#X connect 8 2 22 0;
#X connect 8 3 21 0;
#X connect 8 4 14 0;
#X connect 8 5 23 0;
#X connect 8 6 15 0;
#X connect 8 7 24 0;
#X connect 8 8 16 0;
#X connect 8 9 25 0;
#X connect 8 10 17 0;
#X connect 8 11 26 0;
#X connect 8 12 18 0;
#X connect 8 13 27 0;
#X connect 8 14 19 0;
#X connect 8 15 28 0;
#X connect 9 0 10 0;
#X connect 10 0 12 0;
#X connect 13 0 29 0;
#X connect 14 0 30 0;
#X connect 15 0 34 0;
#X connect 16 0 31 0;
#X connect 17 0 35 0;
#X connect 18 0 32 0;
#X connect 19 0 36 0;
#X connect 20 0 29 0;
#X connect 21 0 33 0;
#X connect 22 0 33 0;
#X connect 23 0 30 0;
#X connect 24 0 34 0;
#X connect 25 0 31 0;
#X connect 26 0 35 0;
#X connect 27 0 32 0;
#X connect 28 0 36 0;
#X connect 29 0 2 0;
#X connect 30 0 2 0;
#X connect 31 0 2 0;
#X connect 32 0 2 0;
#X connect 33 0 2 0;
#X connect 34 0 2 0;
#X connect 35 0 2 0;
#X connect 36 0 2 0;
#X restore 733 481 pd sax_half_notes;
#N canvas 618 164 1234 770 sax_quarter_notes 0;
#X obj 149 106 inlet;
#X obj 220 103 inlet;
#X obj 422 533 outlet;
#X obj 149 152 metro;
#X obj 149 229 +;
#X obj 180 199 + 1;
#X floatatom 149 284 5 0 0 0 - - -;
#X obj 149 258 % 32;
#X obj 149 316 sel 0 1 2 3 4 5 6 7 8 9 10 11 2 13 14 15 16 17 18 19
20 21 22 23 24 25 26 27 28 29 30 31, f 89;
#X msg 149 352 60;
#X msg 304 355 57;
#X msg 381 356 52;
#X msg 459 357 53;
#X msg 536 355 48;
#X msg 616 355 53;
#X msg 691 356 50;
#X msg 187 392 67;
#X msg 265 394 62;
#X msg 226 355 55;
#X msg 342 395 64;
#X msg 421 395 59;
#X msg 497 401 60;
#X msg 573 396 55;
#X msg 652 397 48;
#X msg 734 395 57;
#X msg 168 372 65;
#X msg 207 413 65;
#X msg 245 375 59;
#X msg 284 413 59;
#X msg 324 375 60;
#X msg 362 416 60;
#X msg 399 376 55;
#X msg 439 413 55;
#X msg 474 380 57;
#X msg 555 375 52;
#X msg 594 419 52;
#X msg 510 422 57;
#X msg 632 376 50;
#X msg 672 417 50;
#X msg 711 376 53;
#X msg 753 418 53;
#X floatatom 168 458 5 0 0 0 - - -;
#X floatatom 241 461 5 0 0 0 - - -;
#X floatatom 315 460 5 0 0 0 - - -;
#X floatatom 389 459 5 0 0 0 - - -;
#X floatatom 475 455 5 0 0 0 - - -;
#X floatatom 551 461 5 0 0 0 - - -;
#X floatatom 622 457 5 0 0 0 - - -;
#X floatatom 701 458 5 0 0 0 - - -;
#X connect 0 0 3 0;
#X connect 1 0 3 1;
#X connect 3 0 4 0;
#X connect 4 0 5 0;
#X connect 4 0 7 0;
#X connect 5 0 4 1;
#X connect 6 0 8 0;
#X connect 7 0 6 0;
#X connect 8 0 9 0;
#X connect 8 1 25 0;
#X connect 8 2 16 0;
#X connect 8 3 26 0;
#X connect 8 4 18 0;
#X connect 8 5 27 0;
#X connect 8 6 17 0;
#X connect 8 7 28 0;
#X connect 8 8 10 0;
#X connect 8 9 29 0;
#X connect 8 10 19 0;
#X connect 8 11 30 0;
#X connect 8 12 11 0;
#X connect 8 13 31 0;
#X connect 8 14 20 0;
#X connect 8 15 32 0;
#X connect 8 16 12 0;
#X connect 8 17 33 0;
#X connect 8 18 21 0;
#X connect 8 19 36 0;
#X connect 8 20 13 0;
#X connect 8 21 34 0;
#X connect 8 22 22 0;
#X connect 8 23 35 0;
#X connect 8 24 14 0;
#X connect 8 25 37 0;
#X connect 8 26 23 0;
#X connect 8 27 38 0;
#X connect 8 28 15 0;
#X connect 8 29 39 0;
#X connect 8 30 24 0;
#X connect 8 31 40 0;
#X connect 9 0 41 0;
#X connect 10 0 43 0;
#X connect 11 0 44 0;
#X connect 12 0 45 0;
#X connect 13 0 46 0;
#X connect 14 0 47 0;
#X connect 15 0 48 0;
#X connect 16 0 41 0;
#X connect 17 0 42 0;
#X connect 18 0 42 0;
#X connect 19 0 43 0;
#X connect 20 0 44 0;
#X connect 21 0 45 0;
#X connect 22 0 46 0;
#X connect 23 0 47 0;
#X connect 24 0 48 0;
#X connect 25 0 41 0;
#X connect 26 0 41 0;
#X connect 27 0 42 0;
#X connect 28 0 42 0;
#X connect 29 0 43 0;
#X connect 30 0 43 0;
#X connect 31 0 44 0;
#X connect 32 0 44 0;
#X connect 33 0 45 0;
#X connect 34 0 46 0;
#X connect 35 0 46 0;
#X connect 36 0 45 0;
#X connect 37 0 47 0;
#X connect 38 0 47 0;
#X connect 39 0 48 0;
#X connect 40 0 48 0;
#X connect 41 0 2 0;
#X connect 42 0 2 0;
#X connect 43 0 2 0;
#X connect 44 0 2 0;
#X connect 45 0 2 0;
#X connect 46 0 2 0;
#X connect 47 0 2 0;
#X connect 48 0 2 0;
#X restore 912 493 pd sax_quarter_notes;
#X floatatom 508 522 5 0 0 0 whole_sax - -;
#X floatatom 733 512 5 0 0 0 half_sax - -;
#X floatatom 912 522 5 0 0 0 quarter_sax - -;
#X obj 1249 72 r violin_spawn;
#X obj 1424 75 r violin_die;
#X obj 1249 111 bng 15 250 50 0 empty empty empty 17 7 0 10 -262144
-1 -1;
#X obj 1424 117 bng 15 250 50 0 empty empty empty 17 7 0 10 -262144
-1 -1;
#X msg 1249 160 1;
#X msg 1424 151 -1;
#X obj 1327 255 t f f;
#X obj 1327 222 +;
#X floatatom 1327 286 5 0 0 0 #_of_violins - -;
#X text 31 423 hurt sound;
#X obj 430 393 + 12;
#X obj 733 543 + 12;
#X obj 911 552 + 12;
#X floatatom 1439 821 5 0 0 0 violins_2/4 - -;
#X text 1422 460 violin 2/4;
#X obj 1192 603 % 2;
#X floatatom 1462 485 5 0 0 1 Milliseconds - -;
#X obj 1430 527 metro;
#X obj 1414 545 bng 15 250 50 0 empty empty empty 17 7 0 10 -262144
-1 -1;
#X obj 1430 604 +;
#X obj 1461 574 + 1;
#X floatatom 1430 659 5 0 0 0 - - -;
#X obj 1430 633 % 4;
#X obj 1430 746 spigot;
#X obj 1192 674 sel 0 1;
#X obj 1430 704 sel 0 1 2 3;
#X obj 1450 769 spigot;
#X obj 1192 765 bng 15 250 50 0 empty empty empty 17 7 0 10 -262144
-1 -1;
#X obj 1213 781 bng 15 250 50 0 empty empty empty 17 7 0 10 -262144
-1 -1;
#X floatatom 1192 818 5 0 0 1 violins_1/3 - -;
#X obj 1231 715 tgl 15 0 empty empty empty 17 7 0 10 -262144 -1 -1
0 1;
#X obj 1252 735 tgl 15 0 empty empty empty 17 7 0 10 -262144 -1 -1
0 1;
#X obj 1471 729 tgl 15 0 empty empty empty 17 7 0 10 -262144 -1 -1
0 1;
#X obj 1489 753 tgl 15 0 empty empty empty 17 7 0 10 -262144 -1 -1
0 1;
#X msg 1443 404 0, f 1;
#X msg 1459 404 1, f 1;
#X msg 1312 399 0, f 1;
#X msg 1328 399 1, f 1;
#X msg 1352 400 0, f 1;
#X msg 1368 400 1, f 1;
#X msg 1397 403 0, f 1;
#X msg 1414 402 1, f 1;
#X obj 1327 326 sel 0 1 2 3 4;
#X msg 1280 397 0, f 1;
#X obj 1428 779 bng 15 250 50 0 empty empty empty 17 7 0 10 -262144
-1 -1;
#X obj 1449 795 bng 15 250 50 0 empty empty empty 17 7 0 10 -262144
-1 -1;
#X obj 158 398 r hurt;
#X obj 1278 372 bng 15 250 50 0 empty empty empty 17 7 0 10 -262144
-1 -1;
#X obj 1319 373 bng 15 250 50 0 empty empty empty 17 7 0 10 -262144
-1 -1;
#X obj 1358 370 bng 15 250 50 0 empty empty empty 17 7 0 10 -262144
-1 -1;
#X obj 1402 376 bng 15 250 50 0 empty empty empty 17 7 0 10 -262144
-1 -1;
#X obj 1450 374 bng 15 250 50 0 empty empty empty 17 7 0 10 -262144
-1 -1;
#X text 722 600 increase in octave for violin;
#X obj 563 63 bng 20 250 50 0 empty empty Start_everything 22 10 0
15 -4034 -1 -1;
#X obj 575 98 delay 100;
#X obj 786 259 send perfect;
#X text 763 285 toggles bool in unity;
#X obj 731 155 metro;
#X obj 791 154 metro;
#X obj 786 220 tgl 15 0 empty empty perfect 17 7 0 10 -262144 -1 -1
0 1;
#X obj 711 123 tgl 15 0 empty empty ahead 17 7 0 10 -262144 -1 -1 0
1;
#X obj 777 104 tgl 15 0 empty empty behind 17 7 0 10 -262144 -1 -1
0 1;
#X obj 687 85 delay 200;
#N canvas -1928 79 1920 997 twang 0;
#X obj 190 85 inlet;
#X obj 307 74 inlet;
#X obj 201 483 outlet~;
#X obj 81 325 *~;
#X obj 190 152 t b b;
#X obj 166 179 del 30;
#X msg 167 203 0, f 2;
#X msg 222 204 1, f 2;
#X obj 167 227 tgl 15 0 empty empty empty 17 7 0 10 -262144 -1 -1 0
1;
#X obj 80 355 delwrite~ del 500;
#X obj 305 262 delread4~ del;
#X floatatom 305 239 5 0 0 0 - - -;
#X obj 304 305 *~ 0.99;
#X obj 436 270 vsl 15 128 0 0.05 0 0 empty empty Volume_Slider 0 -9
0 10 -262144 -1 -1 0 1;
#X obj 302 149 mtof;
#X obj 304 191 expr 1000/$f1;
#X obj 202 438 *~;
#X obj 80 266 osc~;
#X connect 0 0 4 0;
#X connect 1 0 14 0;
#X connect 3 0 9 0;
#X connect 4 0 5 0;
#X connect 4 1 7 0;
#X connect 5 0 6 0;
#X connect 6 0 8 0;
#X connect 7 0 8 0;
#X connect 8 0 3 1;
#X connect 10 0 12 0;
#X connect 10 0 16 0;
#X connect 11 0 10 0;
#X connect 12 0 9 0;
#X connect 13 0 16 1;
#X connect 14 0 15 0;
#X connect 15 0 11 0;
#X connect 16 0 2 0;
#X connect 17 0 3 0;
#X restore 157 469 pd twang;
#X obj 919 22 r tempo;
#X obj 523 21 r start_stop;
#X connect 1 0 107 0;
#X connect 2 0 107 1;
#X connect 9 0 13 0;
#X connect 11 0 12 0;
#X connect 13 0 16 0;
#X connect 14 0 13 0;
#X connect 17 0 20 0;
#X connect 18 0 19 0;
#X connect 20 0 18 0;
#X connect 21 0 22 1;
#X connect 22 0 23 0;
#X connect 22 0 24 0;
#X connect 24 0 25 0;
#X connect 24 0 59 0;
#X connect 25 0 24 1;
#X connect 26 0 68 0;
#X connect 27 0 71 0;
#X connect 28 0 72 0;
#X connect 29 0 34 0;
#X connect 29 0 35 0;
#X connect 29 0 40 1;
#X connect 29 0 60 0;
#X connect 29 0 102 1;
#X connect 29 0 101 1;
#X connect 31 0 32 0;
#X connect 32 0 54 0;
#X connect 33 0 31 0;
#X connect 33 0 38 0;
#X connect 33 0 39 0;
#X connect 33 0 40 0;
#X connect 33 0 22 0;
#X connect 33 0 61 0;
#X connect 34 0 36 0;
#X connect 35 0 37 0;
#X connect 36 0 21 0;
#X connect 36 0 39 1;
#X connect 37 0 31 1;
#X connect 37 0 38 1;
#X connect 38 0 41 0;
#X connect 39 0 42 0;
#X connect 40 0 43 0;
#X connect 42 0 55 0;
#X connect 43 0 56 0;
#X connect 44 0 46 0;
#X connect 45 0 47 0;
#X connect 46 0 48 0;
#X connect 47 0 49 0;
#X connect 48 0 51 0;
#X connect 49 0 51 0;
#X connect 50 0 52 0;
#X connect 50 1 51 1;
#X connect 51 0 50 0;
#X connect 52 0 86 0;
#X connect 54 0 2 0;
#X connect 55 0 73 0;
#X connect 56 0 57 0;
#X connect 59 0 26 0;
#X connect 60 0 61 1;
#X connect 61 0 62 0;
#X connect 61 0 63 0;
#X connect 63 0 64 0;
#X connect 63 0 66 0;
#X connect 64 0 63 1;
#X connect 65 0 69 0;
#X connect 66 0 65 0;
#X connect 67 0 88 0;
#X connect 68 0 27 0;
#X connect 68 1 28 0;
#X connect 69 0 67 0;
#X connect 69 1 70 0;
#X connect 69 2 67 0;
#X connect 69 3 70 0;
#X connect 70 0 89 0;
#X connect 71 0 73 0;
#X connect 72 0 73 0;
#X connect 74 0 27 1;
#X connect 75 0 28 1;
#X connect 76 0 67 1;
#X connect 77 0 70 1;
#X connect 78 0 76 0;
#X connect 78 0 74 0;
#X connect 78 0 75 0;
#X connect 79 0 77 0;
#X connect 80 0 75 0;
#X connect 80 0 76 0;
#X connect 80 0 77 0;
#X connect 81 0 74 0;
#X connect 82 0 74 0;
#X connect 82 0 75 0;
#X connect 82 0 77 0;
#X connect 83 0 76 0;
#X connect 84 0 74 0;
#X connect 84 0 76 0;
#X connect 84 0 77 0;
#X connect 85 0 75 0;
#X connect 86 0 91 0;
#X connect 86 1 92 0;
#X connect 86 2 93 0;
#X connect 86 3 94 0;
#X connect 86 4 95 0;
#X connect 87 0 74 0;
#X connect 87 0 75 0;
#X connect 87 0 76 0;
#X connect 87 0 77 0;
#X connect 88 0 57 0;
#X connect 89 0 57 0;
#X connect 90 0 1 0;
#X connect 91 0 87 0;
#X connect 92 0 80 0;
#X connect 92 0 81 0;
#X connect 93 0 82 0;
#X connect 93 0 83 0;
#X connect 94 0 84 0;
#X connect 94 0 85 0;
#X connect 95 0 78 0;
#X connect 95 0 79 0;
#X connect 97 0 98 0;
#X connect 97 0 104 0;
#X connect 97 0 106 0;
#X connect 98 0 33 0;
#X connect 101 0 103 0;
#X connect 102 0 103 0;
#X connect 103 0 99 0;
#X connect 104 0 101 0;
#X connect 105 0 102 0;
#X connect 106 0 105 0;
#X connect 107 0 0 0;
#X connect 107 0 0 1;
#X connect 108 0 29 0;
#X connect 109 0 97 0;
