#N canvas -9 128 1708 852 12;
#X obj 101 578 noise~;
#X obj 102 637 *~;
#X obj 104 838 dac~;
#X obj 211 439 bng 15 250 50 0 empty empty empty 17 7 0 10 -262144
-1 -1;
#X obj 211 464 t b b;
#X obj 187 491 del 30;
#X msg 188 515 0, f 2;
#X msg 243 516 1, f 2;
#X obj 188 539 tgl 15 0 empty empty empty 17 7 0 10 -262144 -1 -1 0
1;
#X obj 101 667 delwrite~ del 500;
#X obj 326 574 delread4~ del;
#X floatatom 326 551 5 0 0 0 - - -;
#X obj 325 617 *~ 0.99;
#X obj 242 726 vsl 15 128 0 0.05 0 0 empty empty Volume_Slider 0 -9
0 10 -262144 -1 -1 0 1;
#X floatatom 325 428 5 0 0 0 midi_note - -;
#X obj 323 461 mtof;
#X obj 325 503 expr 1000/$f1;
#X obj 105 812 *~;
#X text 191 280 creation arguments are OSC address;
#X text 179 238 set message to change OSC address;
#X text 164 48 1 Set IP Address : network address;
#X text 164 68 2 Set Ports (sending and listening);
#X text 164 87 3 Set OSC Addresses (routing osc data;
#X text 155 26 Key Settings;
#X floatatom 43 194 5 0 0 0 - - -;
#N canvas 524 386 623 462 oscReceive 0;
#X obj 55 184 netreceive -u -b;
#X msg 78 143 listen 0;
#X text 152 143 stop listening;
#X text 64 58 packets from network;
#X text 173 177 UDP packets \, binary output, f 13;
#X obj 45 314 print;
#X obj 45 272 oscparse;
#X text 150 114 listen on port 8000;
#X obj 177 269 oscparse;
#X obj 177 293 list trim;
#X floatatom 140 380 5 0 0 0 - - -;
#X text 241 267 Parse the OSC message;
#X obj 177 319 route unity;
#X obj 66 84 loadbang;
#X obj 413 148 netreceive -u -b;
#X msg 66 115 listen 6162;
#X obj 139 357 route test;
#X obj 140 407 s test;
#X connect 0 0 6 0;
#X connect 0 0 8 0;
#X connect 1 0 0 0;
#X connect 6 0 5 0;
#X connect 8 0 9 0;
#X connect 9 0 12 0;
#X connect 10 0 17 0;
#X connect 12 0 16 0;
#X connect 13 0 15 0;
#X connect 15 0 0 0;
#X connect 16 0 10 0;
#X restore 47 142 pd oscReceive;
#X obj 47 36 tgl 15 0 empty empty empty 17 7 0 10 -262144 -1 -1 0 1
;
#X msg 47 61 \; pd dsp \$1;
#X obj 44 278 oscformat PD message;
#X msg 76 239 set PD message;
#N canvas 727 97 450 300 oscSend 0;
#X msg 158 207 disconnect;
#X obj 61 253 netsend -u -b;
#X obj 59 55 list prepend send;
#X obj 59 80 list trim;
#X obj 59 29 r oscOut;
#X text 301 163 send to port 8001;
#X obj 147 108 loadbang;
#X msg 147 148 connect localhost 6969;
#X msg 150 175 connect 127.0.0.1 6969;
#X connect 0 0 1 0;
#X connect 2 0 3 0;
#X connect 3 0 1 0;
#X connect 4 0 2 0;
#X connect 6 0 7 0;
#X connect 7 0 1 0;
#X connect 8 0 1 0;
#X restore 47 118 pd oscSend;
#X obj 44 313 s oscOut;
#X obj 72 406 r test;
#X msg 59 468 activated;
#X obj 58 497 print;
#X obj 60 435 bng 15 250 50 0 empty empty empty 17 7 0 10 -262144 -1
-1;
#X floatatom 1309 289 5 0 0 1 Milliseconds - -;
#X obj 1276 284 bng 15 250 50 0 empty empty empty 17 7 0 10 -262144
-1 -1;
#X msg 1240 312 stop;
#X obj 1277 331 metro;
#X obj 1261 349 bng 15 250 50 0 empty empty empty 17 7 0 10 -262144
-1 -1;
#X obj 1182 556 tgl 15 0 empty empty empty 17 7 0 10 -262144 -1 -1
0 1;
#X obj 1176 532 hradio 15 1 0 16 empty empty empty 0 -8 0 10 -262144
-1 -1 4;
#X obj 1212 556 tgl 15 0 empty empty empty 17 7 0 10 -262144 -1 -1
0 1;
#X obj 1242 556 tgl 15 0 empty empty empty 17 7 0 10 -262144 -1 -1
0 1;
#X obj 1272 556 tgl 15 0 empty empty empty 17 7 0 10 -262144 -1 -1
0 1;
#X obj 1302 556 tgl 15 0 empty empty empty 17 7 0 10 -262144 -1 -1
0 1;
#X obj 1332 556 tgl 15 0 empty empty empty 17 7 0 10 -262144 -1 -1
0 1;
#X obj 1362 556 tgl 15 0 empty empty empty 17 7 0 10 -262144 -1 -1
0 1;
#X obj 1392 556 tgl 15 0 empty empty empty 17 7 0 10 -262144 -1 -1
0 1;
#X obj 1277 408 +;
#X obj 1308 378 + 1;
#X obj 1277 437 % 16;
#X floatatom 1277 463 5 0 0 0 - - -;
#X obj 1176 578 sel 0 1 2 3 4 5 6 7 8 9 10 11 12 13 14 15;
#X obj 1176 611 spigot;
#X obj 1193 632 spigot;
#X obj 1211 653 spigot;
#X obj 1229 674 spigot;
#X obj 1247 610 spigot;
#X obj 1264 631 spigot;
#X obj 1282 652 spigot;
#X obj 1300 673 spigot;
#X obj 1319 610 spigot;
#X obj 1336 631 spigot;
#X obj 1354 652 spigot;
#X obj 1372 673 spigot;
#X obj 1389 608 spigot;
#X obj 1406 629 spigot;
#X obj 1424 650 spigot;
#X obj 1442 671 spigot;
#X floatatom 817 111 5 0 0 0 base_tempo - -;
#X obj 818 59 delay;
#X text 1278 735 saxophone quarter;
#X floatatom 819 32 5 0 0 0 ahead_tempo - -;
#X obj 817 140 delay;
#X text 454 300;
#X floatatom 817 187 5 0 0 0 behind_tempo - -;
#X text 1364 253 more parts activate with more instruments;
#X text 1476 233 what instrument?;
#N canvas 836 155 786 657 cello_notes 0;
#X obj 272 106 inlet;
#X obj 372 106 inlet;
#X obj 347 577 outlet;
#X obj 309 182 metro;
#X obj 293 200 bng 15 250 50 0 empty empty empty 17 7 0 10 -262144
-1 -1;
#X obj 309 259 +;
#X obj 340 229 + 1;
#X floatatom 309 314 5 0 0 0 - - -;
#X obj 309 288 % 8;
#X obj 309 341 sel 0 1 2 3 4 5 6 7;
#X msg 309 374 48;
#X msg 325 394 43;
#X msg 341 414 45;
#X msg 357 434 40;
#X msg 374 375 41;
#X msg 390 395 36;
#X msg 406 414 41;
#X msg 425 476 38;
#X msg 448 498 43;
#X text 489 435 switch between these 2;
#X obj 425 434 random 2;
#X obj 425 453 sel 0 1;
#X text 193 105 start/stop;
#X text 420 108 tempo;
#X connect 0 0 3 0;
#X connect 1 0 3 1;
#X connect 3 0 4 0;
#X connect 3 0 5 0;
#X connect 5 0 6 0;
#X connect 5 0 8 0;
#X connect 6 0 5 1;
#X connect 7 0 9 0;
#X connect 8 0 7 0;
#X connect 9 0 10 0;
#X connect 9 1 11 0;
#X connect 9 2 12 0;
#X connect 9 3 13 0;
#X connect 9 4 14 0;
#X connect 9 5 15 0;
#X connect 9 6 16 0;
#X connect 9 7 20 0;
#X connect 10 0 2 0;
#X connect 11 0 2 0;
#X connect 12 0 2 0;
#X connect 13 0 2 0;
#X connect 14 0 2 0;
#X connect 15 0 2 0;
#X connect 16 0 2 0;
#X connect 17 0 2 0;
#X connect 18 0 2 0;
#X connect 20 0 21 0;
#X connect 21 0 17 0;
#X connect 21 1 18 0;
#X restore 589 294 pd cello_notes;
#X floatatom 589 337 5 0 0 0 bass_line - -;
#X obj 589 191 tgl 15 0 empty empty Start/stop 17 7 0 10 -262144 -1
-1 0 1;
#X obj 944 81 * 2;
#X obj 1068 81 * 4;
#X floatatom 944 110 5 0 0 0 half_tempo - -;
#X floatatom 1068 111 5 0 0 0 whole_tempo - -;
#X text 1364 235 half notes;
#X text 447 182 used to sync up everything;
#N canvas 381 166 628 610 sax_whole_notes 0;
#X obj 173 59 inlet;
#X obj 220 58 inlet;
#X obj 173 100 metro;
#X obj 173 177 +;
#X obj 204 147 + 1;
#X floatatom 173 232 5 0 0 0 - - -;
#X obj 173 206 % 8;
#X obj 211 505 outlet;
#X obj 173 269 sel 0 1 2 3 4 5 6 7;
#X text 353 363 switch between these 2;
#X obj 289 362 random 2;
#X obj 289 381 sel 0 1;
#X msg 173 302 60;
#X msg 189 322 55;
#X msg 205 342 57;
#X msg 221 363 52;
#X msg 238 303 53;
#X msg 254 323 48;
#X msg 270 342 53;
#X msg 289 404 50;
#X msg 312 426 12;
#X connect 0 0 2 0;
#X connect 1 0 2 1;
#X connect 2 0 3 0;
#X connect 3 0 4 0;
#X connect 3 0 6 0;
#X connect 4 0 3 1;
#X connect 5 0 8 0;
#X connect 6 0 5 0;
#X connect 8 0 12 0;
#X connect 8 1 13 0;
#X connect 8 2 14 0;
#X connect 8 3 15 0;
#X connect 8 4 16 0;
#X connect 8 5 17 0;
#X connect 8 6 18 0;
#X connect 8 7 10 0;
#X connect 10 0 11 0;
#X connect 11 0 19 0;
#X connect 11 1 20 0;
#X connect 12 0 7 0;
#X connect 13 0 7 0;
#X connect 14 0 7 0;
#X connect 15 0 7 0;
#X connect 16 0 7 0;
#X connect 17 0 7 0;
#X connect 18 0 7 0;
#X connect 19 0 7 0;
#X connect 20 0 7 0;
#X restore 508 481 pd sax_whole_notes;
#N canvas 926 178 911 997 sax_half_notes 1;
#X obj 103 41 inlet;
#X obj 172 40 inlet;
#X obj 147 445 outlet;
#X obj 103 81 metro;
#X obj 103 158 +;
#X obj 134 128 + 1;
#X floatatom 103 213 5 0 0 0 - - -;
#X obj 103 187 % 16;
#X obj 103 242 sel 0 1 2 3 4 5 6 7 8 9 10 11 12 13 14 15;
#X obj 479 226 * 2;
#X obj 479 261 metro;
#X text 541 245 whole note to potentially switch between measures;
#X obj 479 293 random 3;
#X msg 67 284 60;
#X msg 159 282 57;
#X msg 192 323 52;
#X msg 242 279 53;
#X msg 280 321 48;
#X msg 316 281 53;
#X msg 351 319 50;
#X msg 80 305 67;
#X msg 112 347 62;
#X msg 99 325 55;
#X connect 0 0 3 0;
#X connect 1 0 3 1;
#X connect 1 0 9 0;
#X connect 3 0 4 0;
#X connect 4 0 5 0;
#X connect 4 0 7 0;
#X connect 5 0 4 1;
#X connect 6 0 8 0;
#X connect 7 0 6 0;
#X connect 8 0 13 0;
#X connect 8 1 20 0;
#X connect 8 2 22 0;
#X connect 8 3 21 0;
#X connect 8 4 14 0;
#X connect 8 6 15 0;
#X connect 8 8 16 0;
#X connect 8 10 17 0;
#X connect 8 12 18 0;
#X connect 8 14 19 0;
#X connect 9 0 10 0;
#X connect 10 0 12 0;
#X restore 733 481 pd sax_half_notes;
#N canvas 48 114 1234 770 sax_quarter_notes 1;
#X obj 86 44 inlet;
#X obj 241 55 inlet;
#X obj 156 445 outlet;
#X floatatom 181 110 5 0 0 1 Milliseconds - -;
#X obj 148 105 bng 15 250 50 0 empty empty empty 17 7 0 10 -262144
-1 -1;
#X msg 112 133 stop;
#X obj 149 152 metro;
#X obj 133 170 bng 15 250 50 0 empty empty empty 17 7 0 10 -262144
-1 -1;
#X obj 149 229 +;
#X obj 180 199 + 1;
#X floatatom 149 284 5 0 0 0 - - -;
#X obj 149 258 % 32;
#X obj 149 316 sel 0 1 2 3 4 5 6 7 8 9 10 11 2 13 14 15 16 17 18 19
20 21 22 23 24 25 26 27 28 29 30 31, f 89;
#X obj 843 384 route 1;
#X text 903 383 fix up mess with router later;
#X connect 3 0 6 1;
#X connect 4 0 6 0;
#X connect 5 0 6 0;
#X connect 6 0 7 0;
#X connect 6 0 8 0;
#X connect 8 0 9 0;
#X connect 8 0 11 0;
#X connect 9 0 8 1;
#X connect 10 0 12 0;
#X connect 11 0 10 0;
#X restore 869 586 pd sax_quarter_notes;
#X floatatom 508 522 5 0 0 0 whole_midi - -;
#X floatatom 733 519 5 0 0 0 half_midi - -;
#X floatatom 869 622 5 0 0 0 quarter_midi - -;
#X connect 0 0 1 0;
#X connect 1 0 9 0;
#X connect 3 0 4 0;
#X connect 4 0 5 0;
#X connect 4 1 7 0;
#X connect 5 0 6 0;
#X connect 6 0 8 0;
#X connect 7 0 8 0;
#X connect 8 0 1 1;
#X connect 10 0 12 0;
#X connect 10 0 17 0;
#X connect 11 0 10 0;
#X connect 12 0 9 0;
#X connect 13 0 17 1;
#X connect 14 0 15 0;
#X connect 15 0 16 0;
#X connect 16 0 11 0;
#X connect 17 0 2 0;
#X connect 17 0 2 1;
#X connect 24 0 28 0;
#X connect 26 0 27 0;
#X connect 28 0 31 0;
#X connect 29 0 28 0;
#X connect 32 0 35 0;
#X connect 33 0 34 0;
#X connect 35 0 33 0;
#X connect 36 0 39 1;
#X connect 37 0 39 0;
#X connect 38 0 39 0;
#X connect 39 0 40 0;
#X connect 39 0 50 0;
#X connect 41 0 55 1;
#X connect 42 0 54 0;
#X connect 43 0 57 1;
#X connect 44 0 59 1;
#X connect 45 0 61 1;
#X connect 46 0 63 0;
#X connect 47 0 65 0;
#X connect 48 0 67 0;
#X connect 49 0 69 0;
#X connect 50 0 51 0;
#X connect 50 0 52 0;
#X connect 51 0 50 1;
#X connect 52 0 53 0;
#X connect 53 0 42 0;
#X connect 54 0 55 0;
#X connect 54 1 56 0;
#X connect 54 2 57 0;
#X connect 54 3 58 0;
#X connect 54 4 59 0;
#X connect 54 5 60 0;
#X connect 54 6 61 0;
#X connect 54 7 62 0;
#X connect 54 8 63 0;
#X connect 54 9 64 0;
#X connect 54 10 65 0;
#X connect 54 11 66 0;
#X connect 54 12 67 0;
#X connect 54 13 68 0;
#X connect 54 14 69 0;
#X connect 54 15 70 0;
#X connect 71 0 75 0;
#X connect 71 0 83 0;
#X connect 71 0 84 0;
#X connect 75 0 77 0;
#X connect 80 0 81 0;
#X connect 82 0 80 0;
#X connect 82 0 89 0;
#X connect 82 0 90 0;
#X connect 83 0 85 0;
#X connect 84 0 86 0;
#X connect 85 0 36 0;
#X connect 86 0 80 1;
#X connect 86 0 89 1;
#X connect 89 0 92 0;
#X connect 90 0 93 0;
#X connect 91 0 94 0;
