#N canvas -1928 79 1920 997 12;
#X obj 101 578 noise~;
#X obj 102 637 *~;
#X obj 104 838 dac~;
#X obj 211 439 bng 15 250 50 0 empty empty empty 17 7 0 10 -262144
-1 -1;
#X obj 211 464 t b b;
#X obj 187 491 del 30;
#X msg 188 515 0, f 2;
#X msg 243 516 1, f 2;
#X obj 188 539 tgl 15 0 empty empty empty 17 7 0 10 -262144 -1 -1 0
1;
#X obj 101 667 delwrite~ del 500;
#X obj 326 574 delread4~ del;
#X floatatom 326 551 5 0 0 0 - - -;
#X obj 325 617 *~ 0.99;
#X obj 242 726 vsl 15 128 0 0.05 0 0 empty empty Volume_Slider 0 -9
0 10 -262144 -1 -1 0 1;
#X floatatom 325 428 5 0 0 0 midi_note - -;
#X obj 323 461 mtof;
#X obj 325 503 expr 1000/$f1;
#X obj 105 812 *~;
#X text 191 280 creation arguments are OSC address;
#X text 179 238 set message to change OSC address;
#X text 164 48 1 Set IP Address : network address;
#X text 164 68 2 Set Ports (sending and listening);
#X text 164 87 3 Set OSC Addresses (routing osc data;
#X text 155 26 Key Settings;
#X floatatom 43 194 5 0 0 0 - - -;
#N canvas 524 386 623 462 oscReceive 0;
#X obj 55 184 netreceive -u -b;
#X msg 78 143 listen 0;
#X text 152 143 stop listening;
#X text 64 58 packets from network;
#X text 173 177 UDP packets \, binary output, f 13;
#X obj 45 314 print;
#X obj 45 272 oscparse;
#X text 150 114 listen on port 8000;
#X obj 177 269 oscparse;
#X obj 177 293 list trim;
#X floatatom 140 380 5 0 0 0 - - -;
#X text 241 267 Parse the OSC message;
#X obj 177 319 route unity;
#X obj 66 84 loadbang;
#X obj 413 148 netreceive -u -b;
#X msg 66 115 listen 6162;
#X obj 139 357 route test;
#X obj 140 407 s test;
#X connect 0 0 6 0;
#X connect 0 0 8 0;
#X connect 1 0 0 0;
#X connect 6 0 5 0;
#X connect 8 0 9 0;
#X connect 9 0 12 0;
#X connect 10 0 17 0;
#X connect 12 0 16 0;
#X connect 13 0 15 0;
#X connect 15 0 0 0;
#X connect 16 0 10 0;
#X restore 47 142 pd oscReceive;
#X obj 47 36 tgl 15 0 empty empty empty 17 7 0 10 -262144 -1 -1 0 1
;
#X msg 47 61 \; pd dsp \$1;
#X obj 44 278 oscformat PD message;
#X msg 76 239 set PD message;
#N canvas 727 97 450 300 oscSend 0;
#X msg 158 207 disconnect;
#X obj 61 253 netsend -u -b;
#X obj 59 55 list prepend send;
#X obj 59 80 list trim;
#X obj 59 29 r oscOut;
#X text 301 163 send to port 8001;
#X obj 147 108 loadbang;
#X msg 147 148 connect localhost 6969;
#X msg 150 175 connect 127.0.0.1 6969;
#X connect 0 0 1 0;
#X connect 2 0 3 0;
#X connect 3 0 1 0;
#X connect 4 0 2 0;
#X connect 6 0 7 0;
#X connect 7 0 1 0;
#X connect 8 0 1 0;
#X restore 47 118 pd oscSend;
#X obj 44 313 s oscOut;
#X obj 72 406 r test;
#X msg 59 468 activated;
#X obj 58 497 print;
#X obj 60 435 bng 15 250 50 0 empty empty empty 17 7 0 10 -262144 -1
-1;
#X floatatom 1428 307 5 0 0 1 Milliseconds - -;
#X obj 1395 302 bng 15 250 50 0 empty empty empty 17 7 0 10 -262144
-1 -1;
#X msg 1359 330 stop;
#X obj 1396 349 metro;
#X obj 1380 367 bng 15 250 50 0 empty empty empty 17 7 0 10 -262144
-1 -1;
#X obj 1301 574 tgl 15 0 empty empty empty 17 7 0 10 -262144 -1 -1
0 1;
#X obj 1295 550 hradio 15 1 0 16 empty empty empty 0 -8 0 10 -262144
-1 -1 4;
#X obj 1316 574 tgl 15 0 empty empty empty 17 7 0 10 -262144 -1 -1
0 1;
#X obj 1331 574 tgl 15 0 empty empty empty 17 7 0 10 -262144 -1 -1
0 1;
#X obj 1346 574 tgl 15 0 empty empty empty 17 7 0 10 -262144 -1 -1
0 1;
#X obj 1361 574 tgl 15 0 empty empty empty 17 7 0 10 -262144 -1 -1
0 1;
#X obj 1376 574 tgl 15 0 empty empty empty 17 7 0 10 -262144 -1 -1
0 1;
#X obj 1391 574 tgl 15 0 empty empty empty 17 7 0 10 -262144 -1 -1
0 1;
#X obj 1406 574 tgl 15 0 empty empty empty 17 7 0 10 -262144 -1 -1
0 1;
#X obj 1421 574 tgl 15 0 empty empty empty 17 7 0 10 -262144 -1 -1
0 1;
#X obj 1436 574 tgl 15 0 empty empty empty 17 7 0 10 -262144 -1 -1
0 1;
#X obj 1451 574 tgl 15 0 empty empty empty 17 7 0 10 -262144 -1 -1
0 1;
#X obj 1466 574 tgl 15 0 empty empty empty 17 7 0 10 -262144 -1 -1
0 1;
#X obj 1481 574 tgl 15 0 empty empty empty 17 7 0 10 -262144 -1 -1
0 1;
#X obj 1496 574 tgl 15 0 empty empty empty 17 7 0 10 -262144 -1 -1
0 1;
#X obj 1511 574 tgl 15 0 empty empty empty 17 7 0 10 -262144 -1 -1
0 1;
#X obj 1526 574 tgl 15 0 empty empty empty 17 7 0 10 -262144 -1 -1
0 1;
#X obj 1396 426 +;
#X obj 1427 396 + 1;
#X obj 1396 455 % 16;
#X floatatom 1396 481 5 0 0 0 - - -;
#X obj 1295 596 sel 0 1 2 3 4 5 6 7 8 9 10 11 12 13 14 15;
#X obj 1295 629 spigot;
#X obj 1312 650 spigot;
#X obj 1330 671 spigot;
#X obj 1348 692 spigot;
#X obj 1366 628 spigot;
#X obj 1383 649 spigot;
#X obj 1401 670 spigot;
#X obj 1419 691 spigot;
#X obj 1438 628 spigot;
#X obj 1455 649 spigot;
#X obj 1473 670 spigot;
#X obj 1491 691 spigot;
#X obj 1508 626 spigot;
#X obj 1525 647 spigot;
#X obj 1543 668 spigot;
#X obj 1561 689 spigot;
#X floatatom 814 122 5 0 0 0 Actual_Tempo - -;
#X floatatom 596 280 5 0 0 1 Milliseconds - -;
#X obj 563 275 bng 15 250 50 0 empty empty empty 17 7 0 10 -262144
-1 -1;
#X msg 527 303 stop;
#X obj 564 322 metro;
#X obj 548 340 bng 15 250 50 0 empty empty empty 17 7 0 10 -262144
-1 -1;
#X obj 564 399 +;
#X obj 595 369 + 1;
#X floatatom 564 454 5 0 0 0 - - -;
#X obj 564 428 % 8;
#X obj 564 481 sel 0 1 2 3 4 5 6 7;
#X msg 564 514 48;
#X msg 580 534 43;
#X msg 596 554 45;
#X msg 612 574 40;
#X msg 629 515 41;
#X msg 645 535 36;
#X msg 661 554 41;
#X msg 680 616 38;
#X msg 703 638 43;
#X text 744 575 switch between these 2;
#X obj 680 574 random 2;
#X obj 680 593 sel 0 1;
#X floatatom 635 663 5 0 0 0 Cello_bass_line - -;
#X obj 818 59 delay;
#X text 582 878 saxophone quarter;
#X text 768 881 saxophone half;
#X text 964 891 saxophone whole;
#X floatatom 819 32 5 0 0 0 Ahead_tempo - -;
#X obj 814 151 delay;
#X text 454 300;
#X floatatom 814 198 5 0 0 0 Behind_tempo - -;
#X text 1317 237 quarter notes;
#X text 1322 261 more parts activate with more instruments;
#X text 1434 241 what instrument?;
#X obj 1267 250 / 4;
#X obj 997 248 / 2;
#X floatatom 1019 304 5 0 0 1 Milliseconds - -;
#X obj 986 299 bng 15 250 50 0 empty empty empty 17 7 0 10 -262144
-1 -1;
#X msg 950 327 stop;
#X obj 987 346 metro;
#X obj 971 364 bng 15 250 50 0 empty empty empty 17 7 0 10 -262144
-1 -1;
#X obj 987 423 +;
#X obj 1018 393 + 1;
#X obj 987 452 % 16;
#X floatatom 987 478 5 0 0 0 - - -;
#X obj 563 212 bng 15 250 50 0 empty empty Start 17 7 0 10 -262144
-1 -1;
#X connect 0 0 1 0;
#X connect 1 0 9 0;
#X connect 3 0 4 0;
#X connect 4 0 5 0;
#X connect 4 1 7 0;
#X connect 5 0 6 0;
#X connect 6 0 8 0;
#X connect 7 0 8 0;
#X connect 8 0 1 1;
#X connect 10 0 12 0;
#X connect 10 0 17 0;
#X connect 11 0 10 0;
#X connect 12 0 9 0;
#X connect 13 0 17 1;
#X connect 14 0 15 0;
#X connect 15 0 16 0;
#X connect 16 0 11 0;
#X connect 17 0 2 0;
#X connect 17 0 2 1;
#X connect 24 0 28 0;
#X connect 26 0 27 0;
#X connect 28 0 31 0;
#X connect 29 0 28 0;
#X connect 32 0 35 0;
#X connect 33 0 34 0;
#X connect 35 0 33 0;
#X connect 36 0 39 1;
#X connect 37 0 39 0;
#X connect 38 0 39 0;
#X connect 39 0 40 0;
#X connect 39 0 58 0;
#X connect 41 0 63 1;
#X connect 42 0 62 0;
#X connect 43 0 64 1;
#X connect 44 0 65 1;
#X connect 45 0 66 1;
#X connect 46 0 67 1;
#X connect 47 0 68 1;
#X connect 48 0 69 1;
#X connect 49 0 70 1;
#X connect 50 0 71 0;
#X connect 51 0 72 0;
#X connect 52 0 73 0;
#X connect 53 0 74 0;
#X connect 54 0 75 0;
#X connect 55 0 76 0;
#X connect 56 0 77 0;
#X connect 57 0 78 0;
#X connect 58 0 59 0;
#X connect 58 0 60 0;
#X connect 59 0 58 1;
#X connect 60 0 61 0;
#X connect 61 0 42 0;
#X connect 62 0 63 0;
#X connect 62 1 64 0;
#X connect 62 2 65 0;
#X connect 62 3 66 0;
#X connect 62 4 67 0;
#X connect 62 5 68 0;
#X connect 62 6 69 0;
#X connect 62 7 70 0;
#X connect 62 8 71 0;
#X connect 62 9 72 0;
#X connect 62 10 73 0;
#X connect 62 11 74 0;
#X connect 62 12 75 0;
#X connect 62 13 76 0;
#X connect 62 14 77 0;
#X connect 62 15 78 0;
#X connect 79 0 108 0;
#X connect 79 0 80 0;
#X connect 79 0 114 0;
#X connect 79 0 115 0;
#X connect 80 0 83 1;
#X connect 81 0 83 0;
#X connect 82 0 83 0;
#X connect 83 0 84 0;
#X connect 83 0 85 0;
#X connect 85 0 86 0;
#X connect 85 0 88 0;
#X connect 86 0 85 1;
#X connect 87 0 89 0;
#X connect 88 0 87 0;
#X connect 89 0 90 0;
#X connect 89 1 91 0;
#X connect 89 2 92 0;
#X connect 89 3 93 0;
#X connect 89 4 94 0;
#X connect 89 5 95 0;
#X connect 89 6 96 0;
#X connect 89 7 100 0;
#X connect 90 0 102 0;
#X connect 91 0 102 0;
#X connect 92 0 102 0;
#X connect 93 0 102 0;
#X connect 94 0 102 0;
#X connect 95 0 102 0;
#X connect 96 0 102 0;
#X connect 97 0 102 0;
#X connect 98 0 102 0;
#X connect 100 0 101 0;
#X connect 101 0 97 0;
#X connect 101 1 98 0;
#X connect 108 0 110 0;
#X connect 114 0 36 0;
#X connect 115 0 116 0;
#X connect 116 0 119 1;
#X connect 117 0 119 0;
#X connect 118 0 119 0;
#X connect 119 0 120 0;
#X connect 119 0 121 0;
#X connect 121 0 122 0;
#X connect 121 0 123 0;
#X connect 122 0 121 1;
#X connect 123 0 124 0;
#X connect 125 0 81 0;
#X connect 125 0 117 0;
#X connect 125 0 37 0;
