#N canvas 540 94 945 730 12;
#X obj 504 238 noise~;
#X obj 505 297 *~;
#X obj 507 498 dac~;
#X obj 614 99 bng 15 250 50 0 empty empty empty 17 7 0 10 -262144 -1
-1;
#X obj 614 124 t b b;
#X obj 590 151 del 30;
#X msg 591 175 0, f 2;
#X msg 646 176 1, f 2;
#X obj 591 199 tgl 15 0 empty empty empty 17 7 0 10 -262144 -1 -1 0
1;
#X obj 504 327 delwrite~ del 500;
#X obj 729 234 delread4~ del;
#X floatatom 729 211 5 0 0 0 - - -;
#X obj 728 277 *~ 0.99;
#X obj 645 386 vsl 15 128 0 0.05 0 0 empty empty empty 0 -9 0 10 -262144
-1 -1 1600 1;
#X floatatom 728 88 5 0 0 0 - - -;
#X obj 726 121 mtof;
#X obj 728 163 expr 1000/$f1;
#X obj 508 472 *~;
#X text 787 85 midi note;
#X text 677 449 volume slider;
#X text 191 280 creation arguments are OSC address;
#X text 179 238 set message to change OSC address;
#X text 164 48 1 Set IP Address : network address;
#X text 164 68 2 Set Ports (sending and listening);
#X text 164 87 3 Set OSC Addresses (routing osc data;
#X text 155 26 Key Settings;
#X floatatom 43 194 5 0 0 0 - - -;
#N canvas 524 386 623 462 oscReceive 0;
#X obj 55 184 netreceive -u -b;
#X msg 78 143 listen 0;
#X text 152 143 stop listening;
#X text 64 58 packets from network;
#X text 173 177 UDP packets \, binary output, f 13;
#X obj 45 314 print;
#X obj 45 272 oscparse;
#X text 150 114 listen on port 8000;
#X obj 177 269 oscparse;
#X obj 177 293 list trim;
#X floatatom 140 380 5 0 0 0 - - -;
#X text 241 267 Parse the OSC message;
#X obj 177 319 route unity;
#X obj 66 84 loadbang;
#X obj 413 148 netreceive -u -b;
#X msg 66 115 listen 6162;
#X obj 139 357 route test;
#X obj 140 407 s test;
#X connect 0 0 6 0;
#X connect 0 0 8 0;
#X connect 1 0 0 0;
#X connect 6 0 5 0;
#X connect 8 0 9 0;
#X connect 9 0 12 0;
#X connect 10 0 17 0;
#X connect 12 0 16 0;
#X connect 13 0 15 0;
#X connect 15 0 0 0;
#X connect 16 0 10 0;
#X restore 47 142 pd oscReceive;
#X obj 47 36 tgl 15 0 empty empty empty 17 7 0 10 -262144 -1 -1 0 1
;
#X msg 47 61 \; pd dsp \$1;
#X obj 44 278 oscformat PD message;
#X msg 76 239 set PD message;
#N canvas 727 97 450 300 oscSend 0;
#X msg 158 207 disconnect;
#X obj 61 253 netsend -u -b;
#X obj 59 55 list prepend send;
#X obj 59 80 list trim;
#X obj 59 29 r oscOut;
#X text 301 163 send to port 8001;
#X obj 147 108 loadbang;
#X msg 147 148 connect localhost 6969;
#X msg 150 175 connect 127.0.0.1 6969;
#X connect 0 0 1 0;
#X connect 2 0 3 0;
#X connect 3 0 1 0;
#X connect 4 0 2 0;
#X connect 6 0 7 0;
#X connect 7 0 1 0;
#X connect 8 0 1 0;
#X restore 47 118 pd oscSend;
#X obj 44 313 s oscOut;
#X obj 292 416 r test;
#X msg 279 478 activated;
#X obj 278 507 print;
#X obj 280 445 bng 15 250 50 0 empty empty empty 17 7 0 10 -262144
-1 -1;
#X connect 0 0 1 0;
#X connect 1 0 9 0;
#X connect 3 0 4 0;
#X connect 4 0 5 0;
#X connect 4 1 7 0;
#X connect 5 0 6 0;
#X connect 6 0 8 0;
#X connect 7 0 8 0;
#X connect 8 0 1 1;
#X connect 10 0 12 0;
#X connect 10 0 17 0;
#X connect 11 0 10 0;
#X connect 12 0 9 0;
#X connect 13 0 17 1;
#X connect 14 0 15 0;
#X connect 15 0 16 0;
#X connect 16 0 11 0;
#X connect 17 0 2 0;
#X connect 17 0 2 1;
#X connect 26 0 30 0;
#X connect 28 0 29 0;
#X connect 30 0 33 0;
#X connect 31 0 30 0;
#X connect 34 0 37 0;
#X connect 35 0 36 0;
#X connect 37 0 35 0;
