#N canvas -8 0 1440 878 12;
#X obj 142 520 dac~;
#X obj 158 433 bng 15 250 50 0 empty empty empty 17 7 0 10 -262144
-1 -1;
#X floatatom 279 396 5 0 0 0 midi_note - -;
#X text 191 280 creation arguments are OSC address;
#X text 179 238 set message to change OSC address;
#X text 126 -3 1 Set IP Address : network address;
#X text 164 68 2 Set Ports (sending and listening);
#X text 164 87 3 Set OSC Addresses (routing osc data;
#X text 155 26 Key Settings;
#X floatatom 43 194 5 0 0 0 - - -;
#N canvas 684 57 913 737 oscReceive 0;
#X obj 55 184 netreceive -u -b;
#X msg 78 143 listen 0;
#X text 152 143 stop listening;
#X text 64 58 packets from network;
#X text 173 177 UDP packets \, binary output, f 13;
#X obj 45 314 print;
#X obj 45 272 oscparse;
#X obj 177 269 oscparse;
#X obj 177 293 list trim;
#X floatatom 44 389 5 0 0 0 - - -;
#X text 241 267 Parse the OSC message;
#X obj 177 319 route unity;
#X obj 66 84 loadbang;
#X obj 413 148 netreceive -u -b;
#X msg 66 115 listen 6162;
#X obj 43 366 route test;
#X obj 44 416 s test;
#X floatatom 137 389 5 0 0 0 - - -;
#X obj 136 366 route tempo;
#X obj 137 416 s tempo;
#X obj 235 391 bng 15 250 50 0 empty empty empty 17 7 0 10 -262144
-1 -1;
#X obj 234 364 route start_stop;
#X obj 235 414 s start_stop;
#X obj 384 364 route shoot;
#X obj 384 399 route cello;
#X obj 350 468 route violin1;
#X obj 451 467 route violin2;
#X obj 553 467 route violin3;
#X obj 655 468 route violin4;
#X obj 384 420 bng 15 250 50 0 empty empty empty 17 7 0 10 -262144
-1 -1;
#X obj 384 437 s cello;
#X obj 350 491 bng 15 250 50 0 empty empty empty 17 7 0 10 -262144
-1 -1;
#X obj 350 508 s violin1;
#X obj 452 490 bng 15 250 50 0 empty empty empty 17 7 0 10 -262144
-1 -1;
#X obj 452 507 s violin2;
#X obj 553 489 bng 15 250 50 0 empty empty empty 17 7 0 10 -262144
-1 -1;
#X obj 554 506 s violin3;
#X obj 655 489 bng 15 250 50 0 empty empty empty 17 7 0 10 -262144
-1 -1;
#X obj 656 506 s violin4;
#X obj 476 418 bng 15 250 50 0 empty empty empty 17 7 0 10 -262144
-1 -1;
#X obj 476 397 route whole_sax;
#X obj 476 435 s whole_sax;
#X obj 597 417 bng 15 250 50 0 empty empty empty 17 7 0 10 -262144
-1 -1;
#X obj 597 396 route half_sax;
#X obj 597 434 s half_sax;
#X obj 706 416 bng 15 250 50 0 empty empty empty 17 7 0 10 -262144
-1 -1;
#X obj 706 395 route quarter_sax;
#X obj 706 433 s quarter_sax;
#X text 150 114 listen on port 6162;
#X connect 0 0 6 0;
#X connect 0 0 7 0;
#X connect 1 0 0 0;
#X connect 6 0 5 0;
#X connect 7 0 8 0;
#X connect 8 0 11 0;
#X connect 9 0 16 0;
#X connect 11 0 15 0;
#X connect 11 0 18 0;
#X connect 11 0 21 0;
#X connect 11 0 23 0;
#X connect 12 0 14 0;
#X connect 14 0 0 0;
#X connect 15 0 9 0;
#X connect 17 0 19 0;
#X connect 18 0 17 0;
#X connect 20 0 22 0;
#X connect 21 0 20 0;
#X connect 23 0 24 0;
#X connect 23 0 25 0;
#X connect 23 0 26 0;
#X connect 23 0 27 0;
#X connect 23 0 28 0;
#X connect 23 0 40 0;
#X connect 23 0 43 0;
#X connect 23 0 46 0;
#X connect 24 0 29 0;
#X connect 25 0 31 0;
#X connect 26 0 33 0;
#X connect 27 0 35 0;
#X connect 28 0 37 0;
#X connect 29 0 30 0;
#X connect 31 0 32 0;
#X connect 33 0 34 0;
#X connect 35 0 36 0;
#X connect 37 0 38 0;
#X connect 39 0 41 0;
#X connect 40 0 39 0;
#X connect 42 0 44 0;
#X connect 43 0 42 0;
#X connect 45 0 47 0;
#X connect 46 0 45 0;
#X restore 47 142 pd oscReceive;
#X obj 47 36 tgl 15 0 empty empty empty 17 7 0 10 -262144 -1 -1 0 1
;
#X msg 47 61 \; pd dsp \$1;
#X obj 44 278 oscformat PD message;
#X msg 76 239 set PD message;
#N canvas 309 314 450 300 oscSend 0;
#X msg 158 207 disconnect;
#X obj 61 253 netsend -u -b;
#X obj 59 55 list prepend send;
#X obj 59 80 list trim;
#X obj 59 29 r oscOut;
#X obj 147 108 loadbang;
#X msg 147 148 connect localhost 6969;
#X msg 150 175 connect 127.0.0.1 6969;
#X text 314 174 send to port 6969;
#X connect 0 0 1 0;
#X connect 2 0 3 0;
#X connect 3 0 1 0;
#X connect 4 0 2 0;
#X connect 5 0 6 0;
#X connect 6 0 1 0;
#X connect 7 0 1 0;
#X restore 47 118 pd oscSend;
#X obj 44 313 s oscOut;
#X obj 239 118 r test;
#X msg 226 180 activated;
#X obj 225 209 print;
#X obj 227 147 bng 15 250 50 0 empty empty empty 17 7 0 10 -262144
-1 -1;
#X floatatom 937 112 5 0 0 0 base_tempo - -;
#X text 454 300 comment;
#N canvas 29 84 786 657 cello_notes 0;
#X obj 272 106 inlet;
#X obj 372 106 inlet;
#X obj 347 577 outlet;
#X obj 309 182 metro;
#X obj 293 200 bng 15 250 50 0 empty empty empty 17 7 0 10 -262144
-1 -1;
#X obj 309 259 +;
#X obj 340 229 + 1;
#X floatatom 309 314 5 0 0 0 - - -;
#X obj 309 288 % 8;
#X obj 309 341 sel 0 1 2 3 4 5 6 7;
#X msg 309 374 48;
#X msg 325 394 43;
#X msg 341 414 45;
#X msg 357 434 40;
#X msg 374 375 41;
#X msg 390 395 36;
#X msg 406 414 41;
#X msg 425 476 38;
#X msg 448 498 43;
#X text 489 435 switch between these 2;
#X obj 425 434 random 2;
#X obj 425 453 sel 0 1;
#X text 193 105 start/stop;
#X text 420 108 tempo;
#X connect 0 0 3 0;
#X connect 1 0 3 1;
#X connect 3 0 4 0;
#X connect 3 0 5 0;
#X connect 5 0 6 0;
#X connect 5 0 8 0;
#X connect 6 0 5 1;
#X connect 7 0 9 0;
#X connect 8 0 7 0;
#X connect 9 0 10 0;
#X connect 9 1 11 0;
#X connect 9 2 12 0;
#X connect 9 3 13 0;
#X connect 9 4 14 0;
#X connect 9 5 15 0;
#X connect 9 6 16 0;
#X connect 9 7 20 0;
#X connect 10 0 2 0;
#X connect 11 0 2 0;
#X connect 12 0 2 0;
#X connect 13 0 2 0;
#X connect 14 0 2 0;
#X connect 15 0 2 0;
#X connect 16 0 2 0;
#X connect 17 0 2 0;
#X connect 18 0 2 0;
#X connect 20 0 21 0;
#X connect 21 0 17 0;
#X connect 21 1 18 0;
#X restore 589 294 pd cello_notes;
#X floatatom 589 342 5 0 0 0 bass_line - -;
#X obj 589 135 tgl 15 0 empty empty Start/stop 17 7 0 10 -262144 -1
-1 0 1;
#X obj 1064 82 * 2;
#X obj 1188 82 * 4;
#X floatatom 1064 111 5 0 0 0 half_tempo - -;
#X floatatom 1188 112 5 0 0 0 whole_tempo - -;
#N canvas 403 144 628 610 sax_whole_notes 0;
#X obj 173 59 inlet;
#X obj 220 58 inlet;
#X obj 173 100 metro;
#X obj 173 177 +;
#X obj 204 147 + 1;
#X floatatom 173 232 5 0 0 0 - - -;
#X obj 173 206 % 8;
#X obj 211 505 outlet;
#X obj 173 269 sel 0 1 2 3 4 5 6 7;
#X text 353 363 switch between these 2;
#X obj 289 362 random 2;
#X obj 289 381 sel 0 1;
#X msg 173 302 60;
#X msg 189 322 55;
#X msg 205 342 57;
#X msg 221 363 52;
#X msg 238 303 53;
#X msg 254 323 48;
#X msg 270 342 53;
#X msg 289 404 50;
#X msg 312 426 12;
#X connect 0 0 2 0;
#X connect 1 0 2 1;
#X connect 2 0 3 0;
#X connect 3 0 4 0;
#X connect 3 0 6 0;
#X connect 4 0 3 1;
#X connect 5 0 8 0;
#X connect 6 0 5 0;
#X connect 8 0 12 0;
#X connect 8 1 13 0;
#X connect 8 2 14 0;
#X connect 8 3 15 0;
#X connect 8 4 16 0;
#X connect 8 5 17 0;
#X connect 8 6 18 0;
#X connect 8 7 10 0;
#X connect 10 0 11 0;
#X connect 11 0 19 0;
#X connect 11 1 20 0;
#X connect 12 0 7 0;
#X connect 13 0 7 0;
#X connect 14 0 7 0;
#X connect 15 0 7 0;
#X connect 16 0 7 0;
#X connect 17 0 7 0;
#X connect 18 0 7 0;
#X connect 19 0 7 0;
#X connect 20 0 7 0;
#X restore 884 292 pd sax_whole_notes;
#N canvas -967 87 958 988 sax_half_notes 0;
#X obj 103 41 inlet;
#X obj 172 40 inlet;
#X obj 216 443 outlet;
#X obj 103 81 metro;
#X obj 103 158 +;
#X obj 134 128 + 1;
#X floatatom 103 213 5 0 0 0 - - -;
#X obj 103 187 % 16;
#X obj 103 242 sel 0 1 2 3 4 5 6 7 8 9 10 11 12 13 14 15;
#X obj 472 180 * 2;
#X obj 472 215 metro;
#X text 541 245 whole note to potentially switch between measures;
#X obj 473 243 random 3;
#X msg 67 284 60;
#X msg 159 282 57;
#X msg 192 323 52;
#X msg 245 283 53;
#X msg 280 321 48;
#X msg 316 281 53;
#X msg 351 319 50;
#X msg 80 305 67;
#X msg 112 347 62;
#X msg 99 328 55;
#X msg 180 304 64;
#X msg 204 341 59;
#X msg 258 303 60;
#X msg 298 340 55;
#X msg 334 301 48;
#X msg 370 341 57;
#X floatatom 54 392 5 0 0 0 - - -;
#X floatatom 155 387 5 0 0 0 - - -;
#X floatatom 248 385 5 0 0 0 - - -;
#X floatatom 331 386 5 0 0 0 - - -;
#X floatatom 105 392 5 0 0 0 - - -;
#X floatatom 200 389 5 0 0 0 - - -;
#X floatatom 287 388 5 0 0 0 - - -;
#X floatatom 370 387 5 0 0 0 - - -;
#X connect 0 0 3 0;
#X connect 1 0 3 1;
#X connect 1 0 9 0;
#X connect 3 0 4 0;
#X connect 4 0 5 0;
#X connect 4 0 7 0;
#X connect 5 0 4 1;
#X connect 6 0 8 0;
#X connect 7 0 6 0;
#X connect 8 0 13 0;
#X connect 8 1 20 0;
#X connect 8 2 22 0;
#X connect 8 3 21 0;
#X connect 8 4 14 0;
#X connect 8 5 23 0;
#X connect 8 6 15 0;
#X connect 8 7 24 0;
#X connect 8 8 16 0;
#X connect 8 9 25 0;
#X connect 8 10 17 0;
#X connect 8 11 26 0;
#X connect 8 12 18 0;
#X connect 8 13 27 0;
#X connect 8 14 19 0;
#X connect 8 15 28 0;
#X connect 9 0 10 0;
#X connect 10 0 12 0;
#X connect 13 0 29 0;
#X connect 14 0 30 0;
#X connect 15 0 34 0;
#X connect 16 0 31 0;
#X connect 17 0 35 0;
#X connect 18 0 32 0;
#X connect 19 0 36 0;
#X connect 20 0 29 0;
#X connect 21 0 33 0;
#X connect 22 0 33 0;
#X connect 23 0 30 0;
#X connect 24 0 34 0;
#X connect 25 0 31 0;
#X connect 26 0 35 0;
#X connect 27 0 32 0;
#X connect 28 0 36 0;
#X connect 29 0 2 0;
#X connect 30 0 2 0;
#X connect 31 0 2 0;
#X connect 32 0 2 0;
#X connect 33 0 2 0;
#X connect 34 0 2 0;
#X connect 35 0 2 0;
#X connect 36 0 2 0;
#X restore 1154 308 pd sax_half_notes;
#N canvas 618 164 1234 770 sax_quarter_notes 0;
#X obj 149 106 inlet;
#X obj 220 103 inlet;
#X obj 422 533 outlet;
#X obj 149 152 metro;
#X obj 149 229 +;
#X obj 180 199 + 1;
#X floatatom 149 284 5 0 0 0 - - -;
#X obj 149 258 % 32;
#X obj 149 316 sel 0 1 2 3 4 5 6 7 8 9 10 11 2 13 14 15 16 17 18 19
20 21 22 23 24 25 26 27 28 29 30 31, f 89;
#X msg 149 352 60;
#X msg 304 355 57;
#X msg 381 356 52;
#X msg 459 357 53;
#X msg 536 355 48;
#X msg 616 355 53;
#X msg 691 356 50;
#X msg 187 392 67;
#X msg 265 394 62;
#X msg 226 355 55;
#X msg 342 395 64;
#X msg 421 395 59;
#X msg 497 401 60;
#X msg 573 396 55;
#X msg 652 397 48;
#X msg 734 395 57;
#X msg 168 372 65;
#X msg 207 413 65;
#X msg 245 375 59;
#X msg 284 413 59;
#X msg 324 375 60;
#X msg 362 416 60;
#X msg 399 376 55;
#X msg 439 413 55;
#X msg 474 380 57;
#X msg 555 375 52;
#X msg 594 419 52;
#X msg 510 422 57;
#X msg 632 376 50;
#X msg 672 417 50;
#X msg 711 376 53;
#X msg 753 418 53;
#X floatatom 168 458 5 0 0 0 - - -;
#X floatatom 241 461 5 0 0 0 - - -;
#X floatatom 315 460 5 0 0 0 - - -;
#X floatatom 389 459 5 0 0 0 - - -;
#X floatatom 475 455 5 0 0 0 - - -;
#X floatatom 551 461 5 0 0 0 - - -;
#X floatatom 622 457 5 0 0 0 - - -;
#X floatatom 701 458 5 0 0 0 - - -;
#X connect 0 0 3 0;
#X connect 1 0 3 1;
#X connect 3 0 4 0;
#X connect 4 0 5 0;
#X connect 4 0 7 0;
#X connect 5 0 4 1;
#X connect 6 0 8 0;
#X connect 7 0 6 0;
#X connect 8 0 9 0;
#X connect 8 1 25 0;
#X connect 8 2 16 0;
#X connect 8 3 26 0;
#X connect 8 4 18 0;
#X connect 8 5 27 0;
#X connect 8 6 17 0;
#X connect 8 7 28 0;
#X connect 8 8 10 0;
#X connect 8 9 29 0;
#X connect 8 10 19 0;
#X connect 8 11 30 0;
#X connect 8 12 11 0;
#X connect 8 13 31 0;
#X connect 8 14 20 0;
#X connect 8 15 32 0;
#X connect 8 16 12 0;
#X connect 8 17 33 0;
#X connect 8 18 21 0;
#X connect 8 19 36 0;
#X connect 8 20 13 0;
#X connect 8 21 34 0;
#X connect 8 22 22 0;
#X connect 8 23 35 0;
#X connect 8 24 14 0;
#X connect 8 25 37 0;
#X connect 8 26 23 0;
#X connect 8 27 38 0;
#X connect 8 28 15 0;
#X connect 8 29 39 0;
#X connect 8 30 24 0;
#X connect 8 31 40 0;
#X connect 9 0 41 0;
#X connect 10 0 43 0;
#X connect 11 0 44 0;
#X connect 12 0 45 0;
#X connect 13 0 46 0;
#X connect 14 0 47 0;
#X connect 15 0 48 0;
#X connect 16 0 41 0;
#X connect 17 0 42 0;
#X connect 18 0 42 0;
#X connect 19 0 43 0;
#X connect 20 0 44 0;
#X connect 21 0 45 0;
#X connect 22 0 46 0;
#X connect 23 0 47 0;
#X connect 24 0 48 0;
#X connect 25 0 41 0;
#X connect 26 0 41 0;
#X connect 27 0 42 0;
#X connect 28 0 42 0;
#X connect 29 0 43 0;
#X connect 30 0 43 0;
#X connect 31 0 44 0;
#X connect 32 0 44 0;
#X connect 33 0 45 0;
#X connect 34 0 46 0;
#X connect 35 0 46 0;
#X connect 36 0 45 0;
#X connect 37 0 47 0;
#X connect 38 0 47 0;
#X connect 39 0 48 0;
#X connect 40 0 48 0;
#X connect 41 0 2 0;
#X connect 42 0 2 0;
#X connect 43 0 2 0;
#X connect 44 0 2 0;
#X connect 45 0 2 0;
#X connect 46 0 2 0;
#X connect 47 0 2 0;
#X connect 48 0 2 0;
#X restore 1405 308 pd sax_quarter_notes;
#X floatatom 1154 339 5 0 0 0 half_sax - -;
#X floatatom 1405 337 5 0 0 0 quarter_sax - -;
#X text 31 423 hurt sound;
#X obj 430 393 + 12;
#X obj 967 602 + 12;
#X obj 1250 604 + 12;
#X floatatom 1025 655 5 0 0 0 violins_2 - -;
#X floatatom 735 663 5 0 0 1 violins_1 - -;
#X obj 158 398 r hurt;
#X obj 563 63 bng 20 250 50 0 empty empty Start_everything 22 10 0
15 -4034 -1 -1;
#N canvas 0 0 1440 878 twang 0;
#X obj 190 85 inlet;
#X obj 307 74 inlet;
#X obj 201 483 outlet~;
#X obj 81 325 *~;
#X obj 190 152 t b b;
#X obj 166 179 del 30;
#X msg 167 203 0, f 2;
#X msg 222 204 1, f 2;
#X obj 167 227 tgl 15 0 empty empty empty 17 7 0 10 -262144 -1 -1 0
1;
#X obj 80 355 delwrite~ del 500;
#X obj 305 262 delread4~ del;
#X floatatom 305 239 5 0 0 0 - - -;
#X obj 304 305 *~ 0.99;
#X obj 436 270 vsl 15 128 0 0.05 0 0 empty empty Volume_Slider 0 -9
0 10 -262144 -1 -1 0 1;
#X obj 302 149 mtof;
#X obj 304 191 expr 1000/$f1;
#X obj 202 438 *~;
#X obj 80 266 noise~;
#X connect 0 0 4 0;
#X connect 1 0 14 0;
#X connect 3 0 9 0;
#X connect 4 0 5 0;
#X connect 4 1 7 0;
#X connect 5 0 6 0;
#X connect 6 0 8 0;
#X connect 7 0 8 0;
#X connect 8 0 3 1;
#X connect 10 0 12 0;
#X connect 10 0 16 0;
#X connect 11 0 10 0;
#X connect 12 0 9 0;
#X connect 13 0 16 1;
#X connect 14 0 15 0;
#X connect 15 0 11 0;
#X connect 16 0 2 0;
#X connect 17 0 3 0;
#X restore 157 469 pd twang;
#X obj 919 22 r tempo;
#X obj 523 21 r start_stop;
#X obj 807 19 loadbang;
#X msg 838 64 300;
#X obj 507 562 *~;
#N canvas 0 22 943 756 cello 0;
#N canvas 826 483 614 395 sub.karplus 0;
#X obj 12 12 block~ 1 1 1;
#X obj 12 307 inlet~;
#X obj 54 349 delwrite~ \$0-karplus 100;
#X obj 62 98 delread4~ \$0-karplus;
#X obj 127 130 outlet~;
#X obj 62 51 sig~ 1000;
#X obj 62 77 /~;
#X obj 12 333 +~;
#X msg 394 159 0.001;
#X obj 394 180 log;
#X obj 375 54 r \$0-freq;
#X msg 360 96 1000 \$1;
#X obj 360 117 /;
#X obj 360 138 t f b;
#X obj 360 196 *;
#X obj 360 238 exp;
#X obj 196 61 inlet~;
#X obj 300 280 line~;
#X obj 62 317 *~;
#X obj 360 12 r \$0-gate;
#X obj 360 33 sel 0;
#X obj 360 75 f;
#X obj 300 217 r \$0-gate;
#X obj 300 238 sel 1;
#X msg 360 259 \$1 1;
#X obj 300 301 lop~ 100;
#X obj 62 296 expr~ tanh($v1);
#X obj 83 150 r \$0-freq;
#X msg 300 259 1 1;
#X obj 62 275 hip~ 50;
#X obj 62 246 lop~;
#X floatatom 83 192 5 0 0 0 - - -;
#X obj 104 246 / 64;
#X obj 104 225 r \$0-freq;
#X obj 83 212 clip 4000 7000;
#X obj 83 171 * 16;
#X obj 360 217 / 1000;
#X connect 1 0 7 0;
#X connect 3 0 4 0;
#X connect 3 0 30 0;
#X connect 5 0 6 0;
#X connect 6 0 3 0;
#X connect 7 0 2 0;
#X connect 8 0 9 0;
#X connect 9 0 14 1;
#X connect 10 0 21 1;
#X connect 11 0 12 0;
#X connect 12 0 13 0;
#X connect 13 0 14 0;
#X connect 13 1 8 0;
#X connect 14 0 36 0;
#X connect 15 0 24 0;
#X connect 16 0 6 1;
#X connect 17 0 25 0;
#X connect 18 0 7 1;
#X connect 19 0 20 0;
#X connect 20 0 21 0;
#X connect 21 0 11 0;
#X connect 22 0 23 0;
#X connect 23 0 28 0;
#X connect 24 0 17 0;
#X connect 25 0 18 1;
#X connect 26 0 18 0;
#X connect 27 0 35 0;
#X connect 28 0 17 0;
#X connect 29 0 26 0;
#X connect 30 0 29 0;
#X connect 31 0 34 0;
#X connect 32 0 29 1;
#X connect 33 0 32 0;
#X connect 34 0 30 1;
#X connect 35 0 31 0;
#X connect 36 0 15 0;
#X restore 657 573 pd sub.karplus;
#X obj 151 165 > 0;
#X obj 657 748 outlet~;
#X obj 94 12 inlet;
#X obj 94 33 unpack f f;
#X obj 735 648 r \$0-gate;
#X obj 735 669 sel 1;
#X obj 735 714 switch~;
#X msg 735 690 1;
#X obj 12 81 list prepend;
#X obj 12 102 route 1;
#X obj 151 59 clip 0 127;
#X obj 151 80 t f f;
#X obj 151 186 s \$0-gate;
#X obj 12 123 s \$0-midi;
#X obj 12 144 r \$0-midi;
#X obj 12 165 mtof;
#X obj 12 186 s \$0-freq;
#X obj 81 60 r \$0-gate;
#X obj 178 101 sel 0;
#X obj 205 122 - 1;
#X obj 205 164 s \$0-vel;
#X obj 667 635 env~ 4096;
#X obj 667 656 change;
#X obj 667 677 sel 0;
#X obj 363 130 r \$0-midi;
#X obj 378 214 - 100;
#X obj 378 193 random 201;
#X obj 378 235 / 100;
#X obj 363 340 mtof~;
#X obj 363 277 +;
#X obj 570 204 r \$0-gate;
#X obj 570 266 line~;
#X obj 422 282 *~;
#X msg 667 698 0;
#X obj 378 151 r \$0-gate;
#X obj 378 172 sel 1;
#X obj 570 225 sel 1;
#X msg 570 245 0 \, 1 1000;
#X obj 363 298 sig~;
#X obj 687 245 t f b;
#X obj 687 266 f;
#X obj 638 229 t f f;
#X obj 638 261 f;
#X obj 638 282 -;
#X obj 638 208 r \$0-freq;
#X obj 638 303 abs;
#X obj 638 345 min 100;
#X obj 363 361 lop~;
#X obj 638 324 * 2;
#X obj 422 219 noise~;
#X obj 422 240 bp~ 4 100;
#X obj 422 261 *~ 250;
#X obj 363 319 +~;
#N canvas 781 365 972 623 impulse 0;
#N canvas 0 22 450 300 pinknoise 0;
#X obj 12 78 noise~;
#X obj 121 94 *~ 0.099046;
#X text 149 72 b0;
#X text 267 73 b1;
#X text 367 72 b2;
#X obj 241 94 *~ 0.296516;
#X obj 341 94 *~ 1.05269;
#X obj 12 152 +~;
#X obj 12 173 +~;
#X obj 12 126 *~ 0.1848;
#X obj 12 194 +~;
#X obj 12 237 outlet~;
#X text 142 192 http://www.firstpr.com.au/dsp/pink-noise/;
#X obj 12 215 *~ 0.2;
#X obj 154 115 sig~ 0.99765;
#X obj 274 115 sig~ 0.963;
#X obj 374 115 sig~ 0.57;
#X obj 121 136 rpole~;
#X obj 241 136 rpole~;
#X obj 341 136 rpole~;
#X text 142 212 Paul Kellet's economy method:;
#X text 142 232 b0 = 0.99765 * b0 + white * 0.099046 \;;
#X text 142 252 b1 = 0.963 * b1 + white * 0.296516 \;;
#X text 142 272 b2 = 0.57 * b2 + white * 1.05269 \;;
#X text 142 292 tmp = b0 + b1 + b2 + white * 0.1848 \;;
#X text 12 257 (01) Output;
#X obj 48 31 inlet;
#X obj 48 52 t a b;
#X msg 75 120 clear;
#X text 48 11 (I1) Reset noise's seed and filter's state;
#X connect 0 0 1 0;
#X connect 0 0 5 0;
#X connect 0 0 6 0;
#X connect 0 0 9 0;
#X connect 1 0 17 0;
#X connect 5 0 18 0;
#X connect 6 0 19 0;
#X connect 7 0 8 0;
#X connect 8 0 10 0;
#X connect 9 0 7 0;
#X connect 10 0 13 0;
#X connect 13 0 11 0;
#X connect 14 0 17 1;
#X connect 15 0 18 1;
#X connect 16 0 19 1;
#X connect 17 0 7 1;
#X connect 18 0 8 1;
#X connect 19 0 10 1;
#X connect 26 0 27 0;
#X connect 27 0 0 0;
#X connect 27 1 28 0;
#X connect 28 0 17 0;
#X connect 28 0 19 0;
#X connect 28 0 18 0;
#X restore 330 197 pd pinknoise;
#X obj 389 218 inlet~;
#X obj 330 533 *~;
#X obj 600 407 r \$0-freq;
#X msg 600 428 1000 \$1;
#X obj 600 449 /;
#X obj 525 517 vline~;
#X obj 585 470 f;
#X obj 585 365 r \$0-gate;
#X obj 585 386 sel 0;
#X msg 585 491 0 \$1;
#X obj 330 575 outlet~;
#X obj 330 297 *~;
#X obj 345 255 sig~ 1;
#X obj 345 276 -~;
#X obj 330 402 lop~;
#X obj 351 339 r \$0-freq;
#X obj 351 381 min 2000;
#X obj 797 34 r \$0-vel;
#X msg 797 97 2 \$1;
#X obj 797 118 pow;
#X obj 797 55 pow 2;
#X obj 525 344 r \$0-vel;
#X msg 525 428 2 \$1;
#X msg 525 365 1 \$1;
#X obj 525 386 -;
#N canvas 857 619 474 233 fi.comb-filter 0;
#X obj 22 87 delwrite~ \$0-comb 100;
#X obj 12 153 -~;
#X obj 12 31 block~ 1 1 1;
#X obj 12 61 inlet~;
#X obj 12 195 outlet~;
#X obj 168 116 delread4~ \$0-comb;
#X obj 168 74 sig~ 1000;
#X obj 168 95 /~;
#X obj 236 79 inlet~;
#X obj 12 132 *~ 0.7;
#X obj 168 137 *~ 0.3;
#X connect 1 0 4 0;
#X connect 3 0 0 0;
#X connect 3 0 9 0;
#X connect 5 0 10 0;
#X connect 6 0 7 0;
#X connect 7 0 5 0;
#X connect 8 0 7 1;
#X connect 9 0 1 0;
#X connect 10 0 1 1;
#X restore 330 318 pd fi.comb-filter;
#X obj 429 276 r \$0-freq;
#X obj 525 449 pow;
#X obj 429 297 * 3;
#X obj 413 386 sig~ 2;
#X obj 413 407 pow~;
#X obj 330 423 *~;
#X obj 463 349 osc~ 0.8;
#X obj 389 239 phasor~;
#X obj 440 223 r \$0-freq;
#N canvas 0 22 450 300 highpass 0;
#X obj 62 31 inlet;
#X obj 156 31 inlet;
#X obj 62 131 * 6.28319;
#X obj 62 152 /;
#X obj 242 15 loadbang;
#X obj 269 136 samplerate~;
#X obj 123 161 max 5.96046e-08;
#X obj 155 189 cos;
#X obj 137 331 pack f f f f f f;
#X obj 226 284 / 2;
#X obj 155 236 * -2;
#X obj 62 243 t f f;
#X msg 89 264 1 \$1;
#X obj 89 285 -;
#X obj 62 285 + 1;
#X obj 188 237 + 1;
#X obj 188 284 * -1;
#X obj 62 89 f;
#X obj 156 73 t b f;
#X obj 62 201 sin;
#X obj 62 222 /;
#X obj 123 206 * 2;
#X obj 62 173 t f f;
#X obj 188 258 t f f;
#X obj 226 305 t f f;
#X obj 155 210 t f f;
#X msg 137 352 \$2 \$3 \$4 \$5 \$6 \$1;
#X obj 137 373 unpack f f f f f f;
#X obj 137 425 /;
#X obj 167 425 /;
#X obj 197 425 /;
#X obj 227 425 /;
#X obj 257 425 /;
#X obj 137 451 pack f f f f f;
#X obj 137 399 * -1;
#X obj 167 399 * -1;
#X text 247 331 a0 a1 a2 b0 b1 b2;
#X obj 12 467 biquad~;
#X obj 289 430 inlet;
#X msg 289 451 clear;
#X obj 12 446 inlet~;
#X obj 12 488 outlet~;
#X obj 62 110 clip 20 20000;
#X text 289 410 Reinitialize internal state;
#X text 12 508 Output;
#X text 12 426 Input;
#X text 62 11 Frequency(Hz);
#X text 156 11 Resonance(Q);
#X obj 62 52 f \$1;
#X obj 156 52 f \$2;
#X obj 242 36 t b b;
#X connect 0 0 48 0;
#X connect 1 0 49 0;
#X connect 2 0 3 0;
#X connect 3 0 22 0;
#X connect 4 0 50 0;
#X connect 5 0 3 1;
#X connect 6 0 21 0;
#X connect 7 0 25 0;
#X connect 8 0 26 0;
#X connect 9 0 24 0;
#X connect 10 0 8 1;
#X connect 11 0 14 0;
#X connect 11 1 12 0;
#X connect 12 0 13 0;
#X connect 13 0 8 2;
#X connect 14 0 8 0;
#X connect 15 0 23 0;
#X connect 16 0 8 4;
#X connect 17 0 42 0;
#X connect 18 0 17 0;
#X connect 18 1 6 0;
#X connect 19 0 20 0;
#X connect 20 0 11 0;
#X connect 21 0 20 1;
#X connect 22 0 19 0;
#X connect 22 1 7 0;
#X connect 23 0 16 0;
#X connect 23 1 9 0;
#X connect 24 0 8 3;
#X connect 24 1 8 5;
#X connect 25 0 10 0;
#X connect 25 1 15 0;
#X connect 26 0 27 0;
#X connect 27 0 34 0;
#X connect 27 1 35 0;
#X connect 27 2 30 0;
#X connect 27 3 31 0;
#X connect 27 4 32 0;
#X connect 27 5 32 1;
#X connect 27 5 31 1;
#X connect 27 5 30 1;
#X connect 27 5 29 1;
#X connect 27 5 28 1;
#X connect 28 0 33 0;
#X connect 29 0 33 1;
#X connect 30 0 33 2;
#X connect 31 0 33 3;
#X connect 32 0 33 4;
#X connect 33 0 37 0;
#X connect 34 0 28 0;
#X connect 35 0 29 0;
#X connect 37 0 41 0;
#X connect 38 0 39 0;
#X connect 39 0 37 0;
#X connect 40 0 37 0;
#X connect 42 0 2 0;
#X connect 48 0 17 0;
#X connect 49 0 18 0;
#X connect 50 0 49 0;
#X connect 50 0 48 0;
#X connect 50 1 5 0;
#X restore 330 507 pd highpass;
#X obj 382 465 loadbang;
#X obj 351 444 r \$0-freq;
#X obj 508 146 lop~;
#X msg 382 486 0.4;
#X obj 389 260 lop~;
#X obj 330 554 /~ 2;
#X msg 525 491 1 \$1;
#X obj 544 172 r \$0-gate;
#X obj 544 193 sel 1;
#X obj 544 214 random 101;
#X obj 544 235 / 100;
#X obj 440 244 * 4;
#X obj 351 360 * 6;
#X obj 525 407 * 3;
#X obj 351 465 / 2;
#X obj 543 277 + 0.5;
#X obj 544 256 * 0.5;
#X obj 525 470 * 10;
#X obj 797 139 * 50;
#X obj 463 370 /~ 2;
#X obj 463 391 +~ 0.5;
#X obj 797 76 * 2;
#X obj 463 412 *~ -1;
#X connect 0 0 12 0;
#X connect 1 0 34 0;
#X connect 2 0 42 0;
#X connect 3 0 4 0;
#X connect 4 0 5 0;
#X connect 5 0 7 1;
#X connect 6 0 2 1;
#X connect 7 0 10 0;
#X connect 8 0 9 0;
#X connect 9 0 7 0;
#X connect 10 0 6 0;
#X connect 12 0 26 0;
#X connect 13 0 14 0;
#X connect 14 0 12 1;
#X connect 15 0 32 0;
#X connect 16 0 49 0;
#X connect 17 0 15 1;
#X connect 18 0 21 0;
#X connect 19 0 20 0;
#X connect 20 0 55 0;
#X connect 21 0 58 0;
#X connect 22 0 24 0;
#X connect 23 0 28 0;
#X connect 24 0 25 0;
#X connect 25 0 50 0;
#X connect 26 0 15 0;
#X connect 27 0 29 0;
#X connect 28 0 54 0;
#X connect 29 0 26 1;
#X connect 30 0 31 0;
#X connect 31 0 32 1;
#X connect 32 0 36 0;
#X connect 33 0 56 0;
#X connect 34 0 41 0;
#X connect 35 0 48 0;
#X connect 36 0 39 0;
#X connect 37 0 40 0;
#X connect 38 0 51 0;
#X connect 39 0 2 0;
#X connect 40 0 36 2;
#X connect 41 0 14 1;
#X connect 42 0 11 0;
#X connect 43 0 6 0;
#X connect 44 0 45 0;
#X connect 45 0 46 0;
#X connect 46 0 47 0;
#X connect 47 0 53 0;
#X connect 48 0 41 1;
#X connect 49 0 17 0;
#X connect 50 0 23 0;
#X connect 51 0 36 1;
#X connect 52 0 33 0;
#X connect 53 0 52 0;
#X connect 54 0 43 0;
#X connect 55 0 39 1;
#X connect 56 0 57 0;
#X connect 57 0 59 0;
#X connect 58 0 19 0;
#X connect 59 0 31 1;
#X restore 365 425 pd impulse;
#X obj 657 614 *~ 1;
#X obj 205 143 / 126;
#X obj 422 303 /~ 6;
#X obj 378 256 * 0.1;
#X connect 0 0 55 0;
#X connect 1 0 13 0;
#X connect 3 0 4 0;
#X connect 4 0 9 0;
#X connect 4 1 11 0;
#X connect 5 0 6 0;
#X connect 6 0 8 0;
#X connect 8 0 7 0;
#X connect 9 0 10 0;
#X connect 10 0 14 0;
#X connect 11 0 12 0;
#X connect 12 0 1 0;
#X connect 12 1 19 0;
#X connect 15 0 16 0;
#X connect 16 0 17 0;
#X connect 18 0 9 1;
#X connect 19 1 20 0;
#X connect 20 0 56 0;
#X connect 22 0 23 0;
#X connect 23 0 24 0;
#X connect 24 0 34 0;
#X connect 25 0 30 0;
#X connect 26 0 28 0;
#X connect 27 0 26 0;
#X connect 28 0 58 0;
#X connect 29 0 48 0;
#X connect 30 0 39 0;
#X connect 31 0 37 0;
#X connect 32 0 33 1;
#X connect 33 0 57 0;
#X connect 34 0 7 0;
#X connect 35 0 36 0;
#X connect 36 0 27 0;
#X connect 37 0 38 0;
#X connect 38 0 32 0;
#X connect 39 0 53 0;
#X connect 40 0 41 1;
#X connect 40 1 41 0;
#X connect 41 0 44 1;
#X connect 42 0 43 0;
#X connect 42 1 40 0;
#X connect 43 0 44 0;
#X connect 44 0 46 0;
#X connect 45 0 42 0;
#X connect 46 0 49 0;
#X connect 47 0 48 1;
#X connect 48 0 54 0;
#X connect 48 0 0 1;
#X connect 49 0 47 0;
#X connect 50 0 51 0;
#X connect 51 0 52 0;
#X connect 52 0 33 0;
#X connect 53 0 29 0;
#X connect 54 0 0 0;
#X connect 55 0 2 0;
#X connect 55 0 22 0;
#X connect 56 0 21 0;
#X connect 57 0 53 1;
#X connect 58 0 30 1;
#X restore 514 496 pd cello;
#X obj 571 403 pack f f;
#X obj 500 600 dac~;
#X obj 638 544 vline~;
#X floatatom 1399 651 5 0 0 0 violins_4 - -;
#X floatatom 1209 653 5 0 0 1 violins_3 - -;
#X obj 787 731 bng 15 250 50 0 empty empty empty 17 7 0 10 -262144
-1 -1;
#X obj 1053 721 bng 15 250 50 0 empty empty empty 17 7 0 10 -262144
-1 -1;
#X obj 1313 721 bng 15 250 50 0 empty empty empty 17 7 0 10 -262144
-1 -1;
#X obj 1561 718 bng 15 250 50 0 empty empty empty 17 7 0 10 -262144
-1 -1;
#X floatatom 882 327 5 0 0 0 whole_sax - -;
#X obj 669 509 pack 0.25 f 0 f;
#X obj 669 480 bng 15 250 50 0 empty empty empty 17 7 0 10 -262144
-1 -1;
#X obj 787 708 r violin1;
#X obj 1053 699 r violin2;
#X obj 1315 697 r violin3;
#X obj 1559 695 r violin4;
#X obj 1477 367 r quarter_sax;
#X obj 739 478 / 2;
#X obj 976 342 r whole_sax;
#X obj 669 457 r cello;
#X obj 976 363 bng 15 250 50 0 empty empty empty 17 7 0 10 -262144
-1 -1;
#X obj 1477 389 bng 15 250 50 0 empty empty empty 17 7 0 10 -262144
-1 -1;
#X obj 946 426 vline~;
#X obj 976 396 pack 0.25 f 0 f;
#X obj 1046 365 / 2;
#X obj 887 467 *~;
#X obj 880 505 dac~;
#X text 819 401 put sax here;
#X obj 1222 387 bng 15 250 50 0 empty empty empty 17 7 0 10 -262144
-1 -1;
#X obj 1192 450 vline~;
#X obj 1222 420 pack 0.25 f 0 f;
#X obj 1292 389 / 2;
#X obj 1222 366 r half_sax;
#X text 1115 378 put sax here;
#X obj 1156 483 *~;
#X obj 1148 515 dac~;
#X obj 1448 463 vline~;
#X obj 1478 433 pack 0.25 f 0 f;
#X obj 1544 400 / 2;
#X obj 1412 496 *~;
#X obj 1404 528 dac~;
#X text 1369 388 put sax here;
#X text 652 728 put violin here;
#X text 935 735 put violin here;
#X text 14 480 REMINDER TO MODIFY A BIT;
#N canvas 50 101 604 421 violin 0;
#X obj 284 193 *~;
#X obj 334 175 vline~;
#X msg 421 158 0 1000;
#X obj 249 84 pack f f;
#N canvas 940 295 740 505 reverb 0;
#X obj 162 49 inlet~;
#X obj 144 364 outlet~;
#X floatatom 444 156 0 0 120 0 - - -;
#X text 485 156 level \, dB;
#X floatatom 472 173 0 0 100 0 - - -;
#X text 513 173 liveness \, 0-100;
#X floatatom 507 197 4 0 5000 0 - - -;
#X floatatom 542 220 0 0 100 0 - - -;
#X text 555 195 crossover frequency \, Hz.;
#X text 578 222 HF damping \, percent;
#X obj 235 233 rev3~ 100 90 3000 20;
#X obj 247 331 *~;
#X floatatom 317 299 5 0 0 0 - - -;
#X obj 26 288 *~;
#X floatatom 66 261 5 0 0 0 - - -;
#X text 355 299 wet reverb signal;
#X text 103 264 "dry" signal;
#X obj 409 32 receive reverbWetDry;
#X floatatom 410 59 5 0 0 0 - - -;
#X obj 82 215 expr 1 - $f1;
#X obj 340 3 loadbang;
#X msg 340 33 0;
#X connect 0 0 13 0;
#X connect 0 0 10 0;
#X connect 2 0 10 2;
#X connect 4 0 10 3;
#X connect 6 0 10 4;
#X connect 7 0 10 5;
#X connect 10 0 11 0;
#X connect 10 1 11 0;
#X connect 10 2 11 0;
#X connect 10 3 11 0;
#X connect 11 0 1 0;
#X connect 12 0 11 1;
#X connect 13 0 1 0;
#X connect 14 0 13 1;
#X connect 17 0 18 0;
#X connect 18 0 12 0;
#X connect 18 0 19 0;
#X connect 19 0 14 0;
#X connect 20 0 21 0;
#X connect 21 0 18 0;
#X restore 181 239 pd reverb;
#N canvas 940 295 740 505 reverb 0;
#X obj 162 49 inlet~;
#X obj 144 364 outlet~;
#X floatatom 444 156 0 0 120 0 - - -;
#X text 485 156 level \, dB;
#X floatatom 472 173 0 0 100 0 - - -;
#X text 513 173 liveness \, 0-100;
#X floatatom 507 197 4 0 5000 0 - - -;
#X floatatom 542 220 0 0 100 0 - - -;
#X text 555 195 crossover frequency \, Hz.;
#X text 578 222 HF damping \, percent;
#X obj 235 233 rev3~ 100 90 3000 20;
#X obj 247 331 *~;
#X floatatom 317 299 5 0 0 0 - - -;
#X obj 26 288 *~;
#X floatatom 66 261 5 0 0 0 - - -;
#X text 355 299 wet reverb signal;
#X text 103 264 "dry" signal;
#X obj 409 32 receive reverbWetDry;
#X floatatom 410 59 5 0 0 0 - - -;
#X obj 82 215 expr 1 - $f1;
#X obj 340 3 loadbang;
#X msg 340 33 0;
#X connect 0 0 13 0;
#X connect 0 0 10 0;
#X connect 2 0 10 2;
#X connect 4 0 10 3;
#X connect 6 0 10 4;
#X connect 7 0 10 5;
#X connect 10 0 11 0;
#X connect 10 1 11 0;
#X connect 10 2 11 0;
#X connect 10 3 11 0;
#X connect 11 0 1 0;
#X connect 12 0 11 1;
#X connect 13 0 1 0;
#X connect 14 0 13 1;
#X connect 17 0 18 0;
#X connect 18 0 12 0;
#X connect 18 0 19 0;
#X connect 19 0 14 0;
#X connect 20 0 21 0;
#X connect 21 0 18 0;
#X restore 310 239 pd reverb;
#X obj 404 239 hsl 128 15 0 1 0 0 reverbWetDry reverbWetDry Reverb:_Dry_---_Wet
-2 -8 0 10 -262144 -1 -1 0 1;
#X msg 392 113 0.75 1350 0 1600;
#X obj 411 275 hsl 128 15 0 1 0 0 mgain mgain Master_Gain -2 -8 0 10
-262144 -1 -1 0 1;
#N canvas 183 60 329 243 masterGain 0;
#X obj 84 126 *~;
#X floatatom 104 102 5 0 0 0 - - -;
#X obj 56 28 inlet~;
#X obj 76 191 outlet~;
#X obj 107 73 receive mgain;
#X connect 0 0 3 0;
#X connect 1 0 0 1;
#X connect 2 0 0 0;
#X connect 4 0 1 0;
#X restore 295 273 pd masterGain;
#N canvas 183 60 329 243 masterGain 0;
#X obj 84 126 *~;
#X floatatom 104 102 5 0 0 0 - - -;
#X obj 56 28 inlet~;
#X obj 76 191 outlet~;
#X obj 106 73 receive mgain;
#X connect 0 0 3 0;
#X connect 1 0 0 1;
#X connect 2 0 0 0;
#X connect 4 0 1 0;
#X restore 191 272 pd masterGain;
#N canvas 461 28 943 807 violin 0;
#N canvas 535 206 614 395 sub.karplus 0;
#X obj 12 12 block~ 1 1 1;
#X obj 12 307 inlet~;
#X obj 54 349 delwrite~ \$0-karplus 100;
#X obj 62 91 delread4~ \$0-karplus;
#X obj 127 123 outlet~;
#X obj 62 44 sig~ 1000;
#X obj 62 70 /~;
#X obj 12 333 +~;
#X msg 394 159 0.001;
#X obj 394 180 log;
#X obj 375 54 r \$0-freq;
#X msg 360 96 1000 \$1;
#X obj 360 117 /;
#X obj 360 138 t f b;
#X obj 360 196 *;
#X obj 360 238 exp;
#X obj 196 54 inlet~;
#X obj 300 280 line~;
#X obj 62 317 *~;
#X obj 360 12 r \$0-gate;
#X obj 360 33 sel 0;
#X obj 360 75 f;
#X obj 300 217 r \$0-gate;
#X obj 300 238 sel 1;
#X msg 360 259 \$1 1;
#X obj 62 296 expr~ tanh($v1);
#X obj 83 143 r \$0-freq;
#X msg 300 259 1 1;
#X obj 62 275 hip~ 50;
#X obj 62 246 lop~;
#X floatatom 83 185 5 0 0 0 - - -;
#X obj 104 250 / 64;
#X obj 104 229 r \$0-freq;
#X obj 83 205 clip 4000 7000;
#X obj 83 164 * 16;
#X obj 360 217 / 1000;
#X obj 300 301 lop~ 120;
#X connect 1 0 7 0;
#X connect 3 0 4 0;
#X connect 3 0 29 0;
#X connect 5 0 6 0;
#X connect 6 0 3 0;
#X connect 7 0 2 0;
#X connect 8 0 9 0;
#X connect 9 0 14 1;
#X connect 10 0 21 1;
#X connect 11 0 12 0;
#X connect 12 0 13 0;
#X connect 13 0 14 0;
#X connect 13 1 8 0;
#X connect 14 0 35 0;
#X connect 15 0 24 0;
#X connect 16 0 6 1;
#X connect 17 0 36 0;
#X connect 18 0 7 1;
#X connect 19 0 20 0;
#X connect 20 0 21 0;
#X connect 21 0 11 0;
#X connect 22 0 23 0;
#X connect 23 0 27 0;
#X connect 24 0 17 0;
#X connect 25 0 18 0;
#X connect 26 0 34 0;
#X connect 27 0 17 0;
#X connect 28 0 25 0;
#X connect 29 0 28 0;
#X connect 30 0 33 0;
#X connect 31 0 28 1;
#X connect 32 0 31 0;
#X connect 33 0 29 1;
#X connect 34 0 30 0;
#X connect 35 0 15 0;
#X connect 36 0 18 1;
#X restore 657 573 pd sub.karplus;
#X obj 151 165 > 0;
#X obj 657 748 outlet~;
#X obj 94 12 inlet;
#X obj 94 33 unpack f f;
#X obj 735 648 r \$0-gate;
#X obj 735 669 sel 1;
#X obj 735 714 switch~;
#X msg 735 690 1;
#X obj 12 81 list prepend;
#X obj 12 102 route 1;
#X obj 151 59 clip 0 127;
#X obj 151 80 t f f;
#X obj 12 165 mtof;
#X obj 178 101 sel 0;
#X obj 205 122 - 1;
#X obj 667 635 env~ 4096;
#X obj 667 656 change;
#X obj 667 677 sel 0;
#X obj 378 214 - 100;
#X obj 378 193 random 201;
#X obj 378 235 / 100;
#X obj 363 340 mtof~;
#X obj 363 277 +;
#X obj 570 266 line~;
#X obj 422 282 *~;
#X msg 667 698 0;
#X obj 378 172 sel 1;
#X obj 570 225 sel 1;
#X obj 363 298 sig~;
#X obj 687 245 t f b;
#X obj 687 266 f;
#X obj 638 229 t f f;
#X obj 638 261 f;
#X obj 638 282 -;
#X obj 638 303 abs;
#X obj 638 345 min 100;
#X obj 363 361 lop~;
#X obj 638 324 * 2;
#X obj 422 219 noise~;
#X obj 422 261 *~ 250;
#X obj 363 319 +~;
#N canvas 300 84 972 623 impulse 0;
#N canvas 0 22 450 300 pinknoise 0;
#X obj 12 78 noise~;
#X obj 121 94 *~ 0.099046;
#X text 149 72 b0;
#X text 267 73 b1;
#X text 367 72 b2;
#X obj 241 94 *~ 0.296516;
#X obj 341 94 *~ 1.05269;
#X obj 12 152 +~;
#X obj 12 173 +~;
#X obj 12 126 *~ 0.1848;
#X obj 12 194 +~;
#X obj 12 237 outlet~;
#X text 142 192 http://www.firstpr.com.au/dsp/pink-noise/;
#X obj 154 115 sig~ 0.99765;
#X obj 274 115 sig~ 0.963;
#X obj 374 115 sig~ 0.57;
#X obj 121 136 rpole~;
#X obj 241 136 rpole~;
#X obj 341 136 rpole~;
#X text 142 212 Paul Kellet's economy method:;
#X text 142 232 b0 = 0.99765 * b0 + white * 0.099046 \;;
#X text 142 252 b1 = 0.963 * b1 + white * 0.296516 \;;
#X text 142 272 b2 = 0.57 * b2 + white * 1.05269 \;;
#X text 142 292 tmp = b0 + b1 + b2 + white * 0.1848 \;;
#X text 12 257 (01) Output;
#X obj 48 31 inlet;
#X obj 48 52 t a b;
#X msg 75 120 clear;
#X text 48 11 (I1) Reset noise's seed and filter's state;
#X obj 12 215 *~ 0.2;
#X connect 0 0 1 0;
#X connect 0 0 5 0;
#X connect 0 0 6 0;
#X connect 0 0 9 0;
#X connect 1 0 16 0;
#X connect 5 0 17 0;
#X connect 6 0 18 0;
#X connect 7 0 8 0;
#X connect 8 0 10 0;
#X connect 9 0 7 0;
#X connect 10 0 29 0;
#X connect 13 0 16 1;
#X connect 14 0 17 1;
#X connect 15 0 18 1;
#X connect 16 0 7 1;
#X connect 17 0 8 1;
#X connect 18 0 10 1;
#X connect 25 0 26 0;
#X connect 26 0 0 0;
#X connect 26 1 27 0;
#X connect 27 0 16 0;
#X connect 27 0 18 0;
#X connect 27 0 17 0;
#X connect 29 0 11 0;
#X restore 330 197 pd pinknoise;
#X obj 389 218 inlet~;
#X obj 330 533 *~;
#X obj 600 407 r \$0-freq;
#X msg 600 428 1000 \$1;
#X obj 600 449 /;
#X obj 525 517 vline~;
#X obj 585 470 f;
#X obj 585 365 r \$0-gate;
#X obj 585 386 sel 0;
#X msg 585 491 0 \$1;
#X obj 330 575 outlet~;
#X obj 330 297 *~;
#X obj 345 255 sig~ 1;
#X obj 345 276 -~;
#X obj 330 402 lop~;
#X obj 351 339 r \$0-freq;
#X obj 351 381 min 2000;
#X obj 797 34 r \$0-vel;
#X msg 797 97 2 \$1;
#X obj 797 118 pow;
#X obj 797 55 pow 2;
#X obj 525 344 r \$0-vel;
#X msg 525 428 2 \$1;
#X msg 525 365 1 \$1;
#X obj 525 386 -;
#N canvas 842 533 474 233 fi.comb-filter 0;
#X obj 22 87 delwrite~ \$0-comb 100;
#X obj 12 153 -~;
#X obj 12 31 block~ 1 1 1;
#X obj 12 61 inlet~;
#X obj 12 195 outlet~;
#X obj 168 116 delread4~ \$0-comb;
#X obj 168 74 sig~ 1000;
#X obj 168 95 /~;
#X obj 236 79 inlet~;
#X obj 12 132 *~ 0.7;
#X obj 168 137 *~ 0.3;
#X connect 1 0 4 0;
#X connect 3 0 0 0;
#X connect 3 0 9 0;
#X connect 5 0 10 0;
#X connect 6 0 7 0;
#X connect 7 0 5 0;
#X connect 8 0 7 1;
#X connect 9 0 1 0;
#X connect 10 0 1 1;
#X restore 330 318 pd fi.comb-filter;
#X obj 429 276 r \$0-freq;
#X obj 525 449 pow;
#X obj 429 297 * 3;
#X obj 413 386 sig~ 2;
#X obj 413 407 pow~;
#X obj 330 423 *~;
#X obj 463 349 osc~ 0.8;
#X obj 389 239 phasor~;
#X obj 440 223 r \$0-freq;
#N canvas 0 22 489 399 highpass 0;
#X obj 62 31 inlet;
#X obj 156 31 inlet;
#X obj 62 131 * 6.28319;
#X obj 62 152 /;
#X obj 242 15 loadbang;
#X obj 269 136 samplerate~;
#X obj 123 161 max 5.96046e-08;
#X obj 155 189 cos;
#X obj 137 331 pack f f f f f f;
#X obj 226 284 / 2;
#X obj 155 236 * -2;
#X obj 62 243 t f f;
#X msg 89 264 1 \$1;
#X obj 89 285 -;
#X obj 62 285 + 1;
#X obj 188 237 + 1;
#X obj 188 284 * -1;
#X obj 62 89 f;
#X obj 156 73 t b f;
#X obj 62 201 sin;
#X obj 62 222 /;
#X obj 123 206 * 2;
#X obj 62 173 t f f;
#X obj 188 258 t f f;
#X obj 226 305 t f f;
#X obj 155 210 t f f;
#X msg 137 352 \$2 \$3 \$4 \$5 \$6 \$1;
#X obj 137 373 unpack f f f f f f;
#X obj 137 425 /;
#X obj 167 425 /;
#X obj 197 425 /;
#X obj 227 425 /;
#X obj 257 425 /;
#X obj 137 451 pack f f f f f;
#X obj 137 399 * -1;
#X obj 167 399 * -1;
#X text 247 331 a0 a1 a2 b0 b1 b2;
#X obj 12 467 biquad~;
#X obj 289 430 inlet;
#X msg 289 451 clear;
#X obj 12 446 inlet~;
#X obj 12 488 outlet~;
#X obj 62 110 clip 20 20000;
#X text 289 410 Reinitialize internal state;
#X text 12 508 Output;
#X text 12 426 Input;
#X text 62 11 Frequency(Hz);
#X text 156 11 Resonance(Q);
#X obj 62 52 f \$1;
#X obj 156 52 f \$2;
#X obj 242 36 t b b;
#X connect 0 0 48 0;
#X connect 1 0 49 0;
#X connect 2 0 3 0;
#X connect 3 0 22 0;
#X connect 4 0 50 0;
#X connect 5 0 3 1;
#X connect 6 0 21 0;
#X connect 7 0 25 0;
#X connect 8 0 26 0;
#X connect 9 0 24 0;
#X connect 10 0 8 1;
#X connect 11 0 14 0;
#X connect 11 1 12 0;
#X connect 12 0 13 0;
#X connect 13 0 8 2;
#X connect 14 0 8 0;
#X connect 15 0 23 0;
#X connect 16 0 8 4;
#X connect 17 0 42 0;
#X connect 18 0 17 0;
#X connect 18 1 6 0;
#X connect 19 0 20 0;
#X connect 20 0 11 0;
#X connect 21 0 20 1;
#X connect 22 0 19 0;
#X connect 22 1 7 0;
#X connect 23 0 16 0;
#X connect 23 1 9 0;
#X connect 24 0 8 3;
#X connect 24 1 8 5;
#X connect 25 0 10 0;
#X connect 25 1 15 0;
#X connect 26 0 27 0;
#X connect 27 0 34 0;
#X connect 27 1 35 0;
#X connect 27 2 30 0;
#X connect 27 3 31 0;
#X connect 27 4 32 0;
#X connect 27 5 32 1;
#X connect 27 5 31 1;
#X connect 27 5 30 1;
#X connect 27 5 29 1;
#X connect 27 5 28 1;
#X connect 28 0 33 0;
#X connect 29 0 33 1;
#X connect 30 0 33 2;
#X connect 31 0 33 3;
#X connect 32 0 33 4;
#X connect 33 0 37 0;
#X connect 34 0 28 0;
#X connect 35 0 29 0;
#X connect 37 0 41 0;
#X connect 38 0 39 0;
#X connect 39 0 37 0;
#X connect 40 0 37 0;
#X connect 42 0 2 0;
#X connect 48 0 17 0;
#X connect 49 0 18 0;
#X connect 50 0 49 0;
#X connect 50 0 48 0;
#X connect 50 1 5 0;
#X restore 330 507 pd highpass;
#X obj 382 465 loadbang;
#X obj 351 444 r \$0-freq;
#X obj 508 146 lop~;
#X msg 382 486 0.4;
#X obj 389 260 lop~;
#X obj 330 554 /~ 2;
#X msg 525 491 1 \$1;
#X obj 544 172 r \$0-gate;
#X obj 544 193 sel 1;
#X obj 544 214 random 101;
#X obj 544 235 / 100;
#X obj 440 244 * 4;
#X obj 351 360 * 6;
#X obj 525 407 * 3;
#X obj 351 465 / 2;
#X obj 543 277 + 0.5;
#X obj 544 256 * 0.5;
#X obj 525 470 * 10;
#X obj 797 139 * 50;
#X obj 463 370 /~ 2;
#X obj 463 391 +~ 0.5;
#X obj 797 76 * 2;
#X obj 463 412 *~ -1;
#X connect 0 0 12 0;
#X connect 1 0 34 0;
#X connect 2 0 42 0;
#X connect 3 0 4 0;
#X connect 4 0 5 0;
#X connect 5 0 7 1;
#X connect 6 0 2 1;
#X connect 7 0 10 0;
#X connect 8 0 9 0;
#X connect 9 0 7 0;
#X connect 10 0 6 0;
#X connect 12 0 26 0;
#X connect 13 0 14 0;
#X connect 14 0 12 1;
#X connect 15 0 32 0;
#X connect 16 0 49 0;
#X connect 17 0 15 1;
#X connect 18 0 21 0;
#X connect 19 0 20 0;
#X connect 20 0 55 0;
#X connect 21 0 58 0;
#X connect 22 0 24 0;
#X connect 23 0 28 0;
#X connect 24 0 25 0;
#X connect 25 0 50 0;
#X connect 26 0 15 0;
#X connect 27 0 29 0;
#X connect 28 0 54 0;
#X connect 29 0 26 1;
#X connect 30 0 31 0;
#X connect 31 0 32 1;
#X connect 32 0 36 0;
#X connect 33 0 56 0;
#X connect 34 0 41 0;
#X connect 35 0 48 0;
#X connect 36 0 39 0;
#X connect 37 0 40 0;
#X connect 38 0 51 0;
#X connect 39 0 2 0;
#X connect 40 0 36 2;
#X connect 41 0 14 1;
#X connect 42 0 11 0;
#X connect 43 0 6 0;
#X connect 44 0 45 0;
#X connect 45 0 46 0;
#X connect 46 0 47 0;
#X connect 47 0 53 0;
#X connect 48 0 41 1;
#X connect 49 0 17 0;
#X connect 50 0 23 0;
#X connect 51 0 36 1;
#X connect 52 0 33 0;
#X connect 53 0 52 0;
#X connect 54 0 43 0;
#X connect 55 0 39 1;
#X connect 56 0 57 0;
#X connect 57 0 59 0;
#X connect 58 0 19 0;
#X connect 59 0 31 1;
#X restore 362 422 pd impulse;
#X obj 657 614 *~ 1;
#X obj 205 143 / 126;
#X obj 378 256 * 0.1;
#X msg 570 245 0 \, 2 1000;
#X text 179 30 unpacks midi key and velocity;
#X text 221 190 sent as gate;
#X text 25 217 midi converted to freq. both sendable;
#X text 469 179 tremello (or vibrato?);
#X text 433 378 effects through lopass;
#X obj 422 303 /~ 12;
#N canvas 62 222 710 599 filterbank 0;
#X obj 195 311 *~;
#X floatatom 210 283 5 0 0 0 - - -;
#X floatatom 384 152 5 0 0 0 - - -;
#X floatatom 245 142 5 0 0 0 - - -;
#X floatatom 586 148 5 0 0 0 - - -;
#X obj 360 321 *~;
#X floatatom 377 297 5 0 0 0 - - -;
#X obj 540 310 *~;
#X floatatom 557 286 5 0 0 0 - - -;
#X obj 360 71 inlet~;
#X obj 86 522 outlet~;
#X obj 247 113 receive lopFreq;
#X obj 211 254 receive lopGain;
#X obj 385 115 receive bpFreq;
#X obj 376 268 receive bpGain;
#X obj 586 122 receive hpFreq;
#X obj 558 258 receive hpGain;
#X obj 195 172 lop~ 50;
#X obj 542 175 hip~ 1000;
#X obj 34 210 *~;
#X floatatom 54 165 5 0 0 0 - - -;
#X text 91 167 "dry" signal;
#X obj 56 136 expr 1 - $f1;
#X obj 203 449 *~;
#X obj 73 88 r bypassFilterBank;
#X floatatom 232 402 5 0 0 0 - - -;
#X obj 43 55 loadbang;
#X msg 44 81 0;
#X obj 357 186 bp~ 1000 10;
#X connect 0 0 23 0;
#X connect 1 0 0 1;
#X connect 2 0 28 1;
#X connect 3 0 17 1;
#X connect 4 0 18 1;
#X connect 5 0 23 0;
#X connect 6 0 5 1;
#X connect 7 0 23 0;
#X connect 8 0 7 1;
#X connect 9 0 17 0;
#X connect 9 0 18 0;
#X connect 9 0 19 0;
#X connect 9 0 28 0;
#X connect 11 0 3 0;
#X connect 12 0 1 0;
#X connect 13 0 2 0;
#X connect 14 0 6 0;
#X connect 15 0 4 0;
#X connect 16 0 8 0;
#X connect 17 0 0 0;
#X connect 18 0 7 0;
#X connect 19 0 10 0;
#X connect 20 0 19 1;
#X connect 22 0 20 0;
#X connect 23 0 10 0;
#X connect 24 0 22 0;
#X connect 24 0 25 0;
#X connect 25 0 23 1;
#X connect 26 0 27 0;
#X connect 27 0 22 0;
#X connect 28 0 5 0;
#X restore 371 500 pd filterbank;
#X obj 312 607 hsl 128 15 0 1 0 0 lopGain lopGain LowPass_Gain -2 -8
0 10 -262144 -1 -1 0 1;
#X obj 169 604 hsl 128 15 50 4000 0 0 lopFreq lopFreq LowPass_Frequency
-2 -8 0 10 -262144 -1 -1 0 1;
#X obj 312 650 hsl 128 15 0 1 0 0 bpGain bpGain BandPass_Gain -2 -8
0 10 -262144 -1 -1 0 1;
#X obj 169 645 hsl 128 15 1000 4000 0 0 bpFreq bpFreq BandPass_Frequency
-2 -8 0 10 -262144 -1 -1 0 1;
#X obj 312 694 hsl 128 15 0 1 0 0 hpGain hpGain HighPass_Gain -2 -8
0 10 -262144 -1 -1 0 1;
#X obj 167 690 hsl 128 15 1000 4000 0 0 hpFreq hpFreq HighPass_Frequency
-2 -8 0 10 -262144 -1 -1 0 1;
#X obj 119 622 tgl 15 0 bypassFilterBank bypassFilterBank empty 17
7 0 10 -262144 -1 -1 0 1;
#X text 108 598 Bypass;
#N canvas 62 84 710 599 filterbank 0;
#X obj 195 311 *~;
#X floatatom 210 283 5 0 0 0 - - -;
#X floatatom 384 152 5 0 0 0 - - -;
#X floatatom 245 142 5 0 0 0 - - -;
#X floatatom 586 148 5 0 0 0 - - -;
#X obj 360 321 *~;
#X floatatom 377 297 5 0 0 0 - - -;
#X obj 540 310 *~;
#X floatatom 557 286 5 0 0 0 - - -;
#X obj 360 71 inlet~;
#X obj 86 522 outlet~;
#X obj 247 113 receive lopFreq;
#X obj 211 254 receive lopGain;
#X obj 385 115 receive bpFreq;
#X obj 376 268 receive bpGain;
#X obj 586 122 receive hpFreq;
#X obj 558 258 receive hpGain;
#X obj 195 172 lop~ 50;
#X obj 542 175 hip~ 1000;
#X obj 34 210 *~;
#X floatatom 54 165 5 0 0 0 - - -;
#X text 91 167 "dry" signal;
#X obj 56 136 expr 1 - $f1;
#X obj 203 449 *~;
#X obj 73 88 r bypassFilterBank;
#X floatatom 232 402 5 0 0 0 - - -;
#X obj 43 55 loadbang;
#X msg 44 81 0;
#X obj 357 186 bp~ 1000 10;
#X connect 0 0 23 0;
#X connect 1 0 0 1;
#X connect 2 0 28 1;
#X connect 3 0 17 1;
#X connect 4 0 18 1;
#X connect 5 0 23 0;
#X connect 6 0 5 1;
#X connect 7 0 23 0;
#X connect 8 0 7 1;
#X connect 9 0 17 0;
#X connect 9 0 18 0;
#X connect 9 0 19 0;
#X connect 9 0 28 0;
#X connect 11 0 3 0;
#X connect 12 0 1 0;
#X connect 13 0 2 0;
#X connect 14 0 6 0;
#X connect 15 0 4 0;
#X connect 16 0 8 0;
#X connect 17 0 0 0;
#X connect 18 0 7 0;
#X connect 19 0 10 0;
#X connect 20 0 19 1;
#X connect 22 0 20 0;
#X connect 23 0 10 0;
#X connect 24 0 22 0;
#X connect 24 0 25 0;
#X connect 25 0 23 1;
#X connect 26 0 27 0;
#X connect 27 0 22 0;
#X connect 28 0 5 0;
#X restore 227 504 pd filterbank;
#N canvas 262 86 1178 553 chorus 0;
#X obj 23 259 delwrite~ \$0-delay 1000;
#X obj 221 106 osc~ 0.05;
#X obj 221 131 *~ 10;
#X obj 376 130 *~ 10;
#X obj 221 156 +~ 11;
#X obj 376 155 +~ 21;
#X obj 376 105 osc~ 0.08;
#X obj 511 135 *~ 10;
#X obj 511 110 osc~ 0.13;
#X obj 511 160 +~ 13;
#X obj 694 142 *~ 10;
#X obj 694 167 +~ 55;
#X obj 694 117 osc~ 0.03;
#X obj 839 168 +~ 87;
#X obj 839 118 osc~ 0.015;
#X obj 985 114 osc~ 0.12;
#X obj 985 164 +~ 67;
#X obj 985 139 *~ 5;
#X obj 839 143 *~ 15;
#X obj 221 184 vd~ \$0-delay;
#X obj 376 183 vd~ \$0-delay;
#X obj 511 188 vd~ \$0-delay;
#X obj 694 195 vd~ \$0-delay;
#X obj 839 196 vd~ \$0-delay;
#X obj 985 192 vd~ \$0-delay;
#X obj 61 145 nbx 5 14 -1e+37 1e+37 0 0 empty empty empty 0 -8 0 10
-262144 -1 -1 0 256;
#X obj 22 92 inlet~;
#X obj 532 418 outlet~;
#X obj 630 416 outlet~;
#X obj 271 269 *~ 0.05;
#X obj 214 270 *~ 0.95;
#X obj 1032 261 *~ 0.95;
#X obj 975 262 *~ 0.05;
#X obj 884 262 *~ 0.85;
#X obj 368 266 *~ 0.85;
#X obj 498 267 *~ 0.7;
#X obj 744 263 *~ 0.7;
#X obj 827 263 *~ 0.15;
#X obj 687 264 *~ 0.3;
#X obj 555 266 *~ 0.3;
#X obj 425 265 *~ 0.15;
#X obj 222 221 /~ 6;
#X obj 375 224 /~ 6;
#X obj 512 221 /~ 6;
#X obj 696 226 /~ 6;
#X obj 841 224 /~ 6;
#X obj 988 225 /~ 6;
#X obj 23 172 *~ 1;
#X connect 1 0 2 0;
#X connect 2 0 4 0;
#X connect 3 0 5 0;
#X connect 4 0 19 0;
#X connect 5 0 20 0;
#X connect 6 0 3 0;
#X connect 7 0 9 0;
#X connect 8 0 7 0;
#X connect 9 0 21 0;
#X connect 10 0 11 0;
#X connect 11 0 22 0;
#X connect 12 0 10 0;
#X connect 13 0 23 0;
#X connect 14 0 18 0;
#X connect 15 0 17 0;
#X connect 16 0 24 0;
#X connect 17 0 16 0;
#X connect 18 0 13 0;
#X connect 19 0 41 0;
#X connect 20 0 42 0;
#X connect 21 0 43 0;
#X connect 22 0 44 0;
#X connect 23 0 45 0;
#X connect 24 0 46 0;
#X connect 25 0 47 1;
#X connect 26 0 47 0;
#X connect 29 0 28 0;
#X connect 30 0 27 0;
#X connect 31 0 28 0;
#X connect 32 0 27 0;
#X connect 33 0 28 0;
#X connect 34 0 27 0;
#X connect 35 0 27 0;
#X connect 36 0 28 0;
#X connect 37 0 27 0;
#X connect 38 0 27 0;
#X connect 39 0 28 0;
#X connect 40 0 28 0;
#X connect 41 0 30 0;
#X connect 41 0 29 0;
#X connect 42 0 34 0;
#X connect 42 0 40 0;
#X connect 43 0 35 0;
#X connect 43 0 39 0;
#X connect 44 0 36 0;
#X connect 44 0 38 0;
#X connect 45 0 33 0;
#X connect 45 0 37 0;
#X connect 46 0 31 0;
#X connect 46 0 32 0;
#X connect 47 0 0 0;
#X restore 202 378 pd chorus;
#N canvas 70 339 447 447 xpand 0;
#X obj 77 49 inlet~;
#X obj 178 50 inlet~;
#X obj 131 110 +~;
#X obj 126 149 /~ 2;
#X obj 78 182 -~;
#X obj 173 182 -~;
#X obj 74 231 *~ 0;
#X obj 174 226 *~ 0;
#X obj 171 338 outlet~;
#X obj 71 337 outlet~;
#X floatatom 284 114 5 0 0 0 - - -;
#X obj 284 87 receive xpandAmount;
#X connect 0 0 2 0;
#X connect 0 0 4 0;
#X connect 1 0 2 1;
#X connect 1 0 5 1;
#X connect 2 0 3 0;
#X connect 3 0 4 1;
#X connect 3 0 5 0;
#X connect 3 0 8 0;
#X connect 3 0 9 0;
#X connect 4 0 6 0;
#X connect 5 0 7 0;
#X connect 6 0 9 0;
#X connect 7 0 8 0;
#X connect 10 0 7 1;
#X connect 10 0 6 1;
#X connect 11 0 10 0;
#X restore 219 447 pd xpand;
#X obj 423 240 bp~ 4 400;
#X obj 81 60 r \$1-gate;
#X obj 151 186 s \$1-gate;
#X obj 205 164 s \$1-vel;
#X obj 12 123 s \$1-midi;
#X obj 12 144 r \$1-midi;
#X obj 12 186 s \$1-freq;
#X obj 363 130 r \$1-midi;
#X obj 378 151 r \$1-gate;
#X obj 570 204 r \$1-gate;
#X obj 638 208 r \$1-freq;
#X connect 0 0 43 0;
#X connect 1 0 67 0;
#X connect 3 0 4 0;
#X connect 4 0 9 0;
#X connect 4 1 11 0;
#X connect 5 0 6 0;
#X connect 6 0 8 0;
#X connect 8 0 7 0;
#X connect 9 0 10 0;
#X connect 10 0 69 0;
#X connect 11 0 12 0;
#X connect 12 0 1 0;
#X connect 12 1 14 0;
#X connect 13 0 71 0;
#X connect 14 1 15 0;
#X connect 15 0 44 0;
#X connect 16 0 17 0;
#X connect 17 0 18 0;
#X connect 18 0 26 0;
#X connect 19 0 21 0;
#X connect 20 0 19 0;
#X connect 21 0 45 0;
#X connect 22 0 37 0;
#X connect 23 0 29 0;
#X connect 24 0 25 1;
#X connect 25 0 52 0;
#X connect 26 0 7 0;
#X connect 27 0 20 0;
#X connect 28 0 46 0;
#X connect 29 0 41 0;
#X connect 30 0 31 1;
#X connect 30 1 31 0;
#X connect 31 0 34 1;
#X connect 32 0 33 0;
#X connect 32 1 30 0;
#X connect 33 0 34 0;
#X connect 34 0 35 0;
#X connect 35 0 38 0;
#X connect 36 0 37 1;
#X connect 37 0 42 0;
#X connect 37 0 0 1;
#X connect 38 0 36 0;
#X connect 39 0 65 0;
#X connect 40 0 25 0;
#X connect 41 0 22 0;
#X connect 42 0 63 0;
#X connect 43 0 2 0;
#X connect 43 0 16 0;
#X connect 44 0 68 0;
#X connect 45 0 23 1;
#X connect 46 0 24 0;
#X connect 52 0 41 1;
#X connect 53 0 0 0;
#X connect 62 0 0 0;
#X connect 63 0 64 0;
#X connect 63 1 64 1;
#X connect 64 0 62 0;
#X connect 64 1 53 0;
#X connect 65 0 40 0;
#X connect 66 0 9 1;
#X connect 70 0 13 0;
#X connect 72 0 23 0;
#X connect 73 0 27 0;
#X connect 74 0 28 0;
#X connect 75 0 32 0;
#X restore 262 119 pd violin;
#X obj 222 35 inlet;
#X obj 339 35 inlet;
#X text 148 35 Midi Key;
#X text 390 33 Gate/Velocity;
#X obj 242 321 *~;
#X obj 247 362 outlet~;
#X text 408 301 Increase reverb and gain;
#X text 422 323 for violin/voice sound;
#X connect 0 0 4 0;
#X connect 0 0 5 0;
#X connect 1 0 0 1;
#X connect 2 0 1 0;
#X connect 3 0 11 0;
#X connect 4 0 10 0;
#X connect 5 0 9 0;
#X connect 7 0 1 0;
#X connect 9 0 16 1;
#X connect 10 0 16 0;
#X connect 11 0 0 0;
#X connect 12 0 3 0;
#X connect 13 0 3 1;
#X connect 16 0 17 0;
#X restore 334 636 pd violin;
#X connect 1 0 43 0;
#X connect 2 0 43 1;
#X connect 9 0 13 0;
#X connect 11 0 12 0;
#X connect 13 0 16 0;
#X connect 14 0 13 0;
#X connect 17 0 20 0;
#X connect 18 0 19 0;
#X connect 20 0 18 0;
#X connect 21 0 26 0;
#X connect 21 0 27 0;
#X connect 21 0 32 1;
#X connect 21 0 88 0;
#X connect 23 0 24 0;
#X connect 24 0 36 0;
#X connect 24 0 50 0;
#X connect 24 0 50 1;
#X connect 25 0 23 0;
#X connect 25 0 30 0;
#X connect 25 0 31 0;
#X connect 25 0 32 0;
#X connect 26 0 28 0;
#X connect 27 0 29 0;
#X connect 28 0 31 1;
#X connect 28 0 81 0;
#X connect 29 0 23 1;
#X connect 29 0 30 1;
#X connect 29 0 67 0;
#X connect 29 0 74 0;
#X connect 30 0 59 0;
#X connect 31 0 33 0;
#X connect 32 0 34 0;
#X connect 33 0 37 0;
#X connect 34 0 38 0;
#X connect 36 0 2 0;
#X connect 37 0 40 0;
#X connect 37 0 54 0;
#X connect 38 0 39 0;
#X connect 38 0 53 0;
#X connect 41 0 1 0;
#X connect 42 0 25 0;
#X connect 43 0 0 0;
#X connect 43 0 0 1;
#X connect 44 0 21 0;
#X connect 45 0 42 0;
#X connect 46 0 47 0;
#X connect 47 0 21 0;
#X connect 48 0 51 0;
#X connect 48 0 51 1;
#X connect 49 0 48 0;
#X connect 50 0 49 0;
#X connect 52 0 48 1;
#X connect 60 0 52 0;
#X connect 61 0 60 0;
#X connect 61 0 52 0;
#X connect 62 0 55 0;
#X connect 63 0 56 0;
#X connect 64 0 57 0;
#X connect 65 0 58 0;
#X connect 66 0 71 0;
#X connect 67 0 60 1;
#X connect 67 0 60 3;
#X connect 68 0 70 0;
#X connect 69 0 61 0;
#X connect 70 0 73 0;
#X connect 70 0 72 0;
#X connect 71 0 87 0;
#X connect 72 0 75 1;
#X connect 73 0 72 0;
#X connect 74 0 73 1;
#X connect 74 0 73 3;
#X connect 75 0 76 0;
#X connect 75 0 76 1;
#X connect 78 0 80 0;
#X connect 78 0 79 0;
#X connect 79 0 84 1;
#X connect 80 0 79 0;
#X connect 81 0 80 1;
#X connect 81 0 80 3;
#X connect 82 0 78 0;
#X connect 84 0 85 0;
#X connect 84 0 85 1;
#X connect 86 0 89 1;
#X connect 87 0 86 0;
#X connect 88 0 87 1;
#X connect 88 0 87 3;
#X connect 89 0 90 0;
#X connect 89 0 90 1;
